<?xml version="1.0" encoding="UTF-8"?>
<svg width="29px" height="30px" viewBox="0 0 29 30" version="1.1" xmlns="http://www.w3.org/2000/svg" xmlns:xlink="http://www.w3.org/1999/xlink">
    <!-- Generator: Sketch 51.2 (57519) - http://www.bohemiancoding.com/sketch -->
    <title>160</title>
    <desc>Created with Sketch.</desc>
    <defs></defs>
    <g id="Page-1" stroke="none" stroke-width="1" fill="none" fill-rule="evenodd">
        <g id="Filter" transform="translate(-1246.000000, -378.000000)" fill="#FFFFFF" fill-rule="nonzero">
            <g id="160" transform="translate(1246.000000, 378.000000)">
                <path d="M14.3333333,9.16433333 C11.116,9.16433333 8.49766667,11.7826667 8.49766667,15.0006667 C8.49766667,18.2186667 11.116,20.8366667 14.3333333,20.8366667 C17.5506667,20.8366667 20.169,18.2186667 20.169,15.0006667 C20.169,11.7826667 17.5506667,9.16433333 14.3333333,9.16433333 Z M14.3333333,19.7753333 C11.701,19.7753333 9.55933333,17.633 9.55933333,15.0006667 C9.55933333,12.368 11.701,10.226 14.3333333,10.226 C16.9656667,10.226 19.1073333,12.368 19.1073333,15.0006667 C19.1073333,17.633 16.9656667,19.7753333 14.3333333,19.7753333 Z" id="Shape"></path>
                <path d="M25.5973333,12.8223333 L27.3446667,11.8136667 C27.8376667,11.5286667 28.191,11.0676667 28.339,10.515 C28.4866667,9.962 28.412,9.38566667 28.127,8.893 L26.5193333,6.10833333 C26.2346667,5.61533333 25.7736667,5.26166667 25.2206667,5.11366667 C24.6686667,4.966 24.0916667,5.04066667 23.5986667,5.32566667 L21.851,6.33433333 C21.6133333,6.472 21.1863333,6.43833333 20.9726667,6.26466667 C20.953,6.24866667 20.4913333,5.87533333 19.824,5.49 C19.1643333,5.108 18.603,4.892 18.5796667,4.883 C18.3226667,4.78433333 18.0796667,4.43133333 18.0796667,4.15533333 L18.0796667,2.13866667 C18.0793333,0.959 17.12,0 15.941,0 L12.7256667,0 C11.5466667,0 10.5873333,0.959 10.5873333,2.13833333 L10.5873333,4.15566667 C10.5873333,4.43066667 10.3443333,4.78433333 10.0873333,4.883 C10.064,4.892 9.50266667,5.10866667 8.843,5.49 C8.17566667,5.87533333 7.714,6.24866667 7.695,6.26433333 C7.48166667,6.438 7.055,6.472 6.81633333,6.33433333 L5.068,5.325 C4.575,5.04033333 3.99933333,4.96566667 3.446,5.11333333 C2.89333333,5.26133333 2.432,5.615 2.14733333,6.10766667 L0.539666667,8.89233333 C0.255,9.38533333 0.18,9.96166667 0.328,10.514 C0.476,11.0673333 0.829333333,11.5283333 1.322,11.813 L3.06966667,12.822 C3.30766667,12.9593333 3.492,13.346 3.448,13.6173333 C3.444,13.6413333 3.353,14.2163333 3.353,15 C3.353,15.7836667 3.444,16.358 3.448,16.382 C3.49166667,16.653 3.30733333,17.04 3.06966667,17.1773333 L1.322,18.186 C0.829,18.4706667 0.476,18.932 0.328,19.4853333 C0.18,20.0376667 0.255,20.6146667 0.539666667,21.1073333 L2.14733333,23.892 C2.73733333,24.9126667 4.047,25.2633333 5.06866667,24.6746667 L6.816,23.666 C7.054,23.528 7.481,23.5623333 7.694,23.7356667 C7.71366667,23.7516667 8.17566667,24.1253333 8.843,24.511 C9.503,24.893 10.0643333,25.1093333 10.0876667,25.118 C10.3446667,25.2166667 10.5876667,25.57 10.5876667,25.8453333 L10.5876667,27.8613333 C10.5876667,29.04 11.547,29.9996667 12.726,29.9996667 L15.9413333,29.9996667 C17.1203333,29.9996667 18.0796667,29.04 18.0796667,27.8613333 L18.0796667,25.8453333 C18.0796667,25.5703333 18.3226667,25.2166667 18.5796667,25.118 C18.603,25.1093333 19.165,24.8926667 19.8246667,24.511 C20.4923333,24.1253333 20.9546667,23.7516667 20.9736667,23.7356667 C21.187,23.5623333 21.6146667,23.5286667 21.8523333,23.666 L23.5986667,24.674 C24.0916667,24.959 24.6683333,25.034 25.2206667,24.8863333 C25.7736667,24.7383333 26.235,24.3843333 26.5193333,23.8916667 L28.127,21.107 C28.4116667,20.614 28.4866667,20.038 28.339,19.4856667 C28.191,18.9323333 27.8373333,18.4706667 27.3443333,18.1863333 L25.5976667,17.1776667 C25.3596667,17.0403333 25.1753333,16.654 25.219,16.3823333 C25.2233333,16.3583333 25.314,15.7836667 25.314,15.0003333 C25.314,14.216 25.2226667,13.6416667 25.2186667,13.6176667 C25.175,13.3463333 25.3593333,12.9596667 25.5973333,12.8223333 Z M24.1716667,13.7853333 C24.172,13.7906667 24.2526667,14.3063333 24.2526667,15.0003333 C24.2526667,15.6943333 24.1723333,16.2096667 24.1716667,16.214 C24.059,16.915 24.4526667,17.742 25.0673333,18.0966667 L26.8143333,19.105 C27.062,19.2483333 27.2393333,19.4806667 27.3143333,19.7603333 C27.3893333,20.039 27.3513333,20.3293333 27.2086667,20.5766667 L25.601,23.3613333 C25.4576667,23.6093333 25.2256667,23.7863333 24.9463333,23.8616667 C24.6676667,23.9366667 24.3773333,23.8986667 24.1293333,23.7556667 L22.3833333,22.748 C21.7693333,22.3926667 20.856,22.4653333 20.3053333,22.9123333 C20.3013333,22.9163333 19.8846667,23.252 19.2946667,23.5926667 C18.7106667,23.93 18.2046667,24.1266667 18.2,24.128 C17.538,24.382 17.019,25.1366667 17.019,25.8456667 L17.019,27.8616667 C17.019,28.4556667 16.536,28.9386667 15.942,28.9386667 L12.7266667,28.9386667 C12.1326667,28.9386667 11.6496667,28.4556667 11.6496667,27.8616667 L11.6496667,25.8456667 C11.6496667,25.1366667 11.131,24.3816667 10.4686667,24.1276667 C10.4633333,24.1256667 9.963,23.933 9.37433333,23.5926667 C8.78433333,23.252 8.36766667,22.9163333 8.364,22.9123333 C7.813,22.4653333 6.89933333,22.3923333 6.28633333,22.748 L5.10633333,23.4286667 L5.109,23.434 C5.00166667,23.49 4.83266667,23.587 4.53933333,23.756 C4.024,24.0533333 3.36433333,23.876 3.06766667,23.3623333 L1.46,20.5776667 C1.317,20.3296667 1.27933333,20.0393333 1.35433333,19.7606667 C1.429,19.481 1.60666667,19.2486667 1.854,19.1053333 C2.18166667,18.9166667 2.33833333,18.8266667 2.42,18.7766667 L2.421,18.7783333 L3.6,18.0966667 C4.21466667,17.742 4.60766667,16.9146667 4.49533333,16.2146667 C4.49466667,16.2096667 4.41433333,15.694 4.41433333,15.0003333 C4.41433333,14.3063333 4.49466667,13.7903333 4.49533333,13.786 C4.60833333,13.085 4.215,12.258 3.6,11.9033333 C2.52133333,11.2803333 2.41733333,11.2203333 2.41733333,11.2203333 C2.41733333,11.2203333 2.41833333,11.2213333 2.41966667,11.222 L1.85233333,10.8943333 C1.605,10.7516667 1.42733333,10.519 1.35266667,10.2396667 C1.27766667,9.96066667 1.31566667,9.67066667 1.45833333,9.42266667 L3.066,6.638 C3.209,6.39066667 3.441,6.213 3.72066667,6.13833333 C3.99933333,6.06333333 4.28966667,6.10133333 4.537,6.24333333 L6.28533333,7.25266667 C6.90033333,7.60766667 7.81266667,7.53533333 8.363,7.088 C8.36733333,7.08433333 8.78333333,6.74966667 9.37366667,6.40833333 C9.957,6.071 10.4626667,5.87466667 10.467,5.87333333 C11.129,5.61933333 11.648,4.86533333 11.648,4.15566667 L11.648,2.13833333 C11.648,1.54433333 12.131,1.061 12.725,1.061 L15.9403333,1.061 C16.5343333,1.061 17.0173333,1.54433333 17.0173333,2.13833333 L17.0173333,4.155 C17.0173333,4.86466667 17.5363333,5.61933333 18.198,5.873 C18.2033333,5.875 18.7086667,6.071 19.2923333,6.408 C19.8823333,6.749 20.2986667,7.084 20.3026667,7.08766667 C20.8526667,7.535 21.7666667,7.60766667 22.3803333,7.25266667 L24.128,6.24433333 C24.3753333,6.101 24.6646667,6.06333333 24.945,6.13866667 C25.2243333,6.21333333 25.4563333,6.39066667 25.5993333,6.638 L27.207,9.42266667 C27.35,9.67066667 27.3876667,9.961 27.3126667,10.2396667 C27.2376667,10.519 27.0603333,10.7516667 26.8126667,10.8943333 L25.0666667,11.9033333 C24.452,12.258 24.0586667,13.085 24.1716667,13.7853333 Z" id="Shape"></path>
            </g>
        </g>
    </g>
</svg>