<?xml version="1.0" encoding="UTF-8"?>
<svg width="24px" height="30px" viewBox="0 0 24 30" version="1.1" xmlns="http://www.w3.org/2000/svg" xmlns:xlink="http://www.w3.org/1999/xlink">
    <!-- Generator: Sketch 51.2 (57519) - http://www.bohemiancoding.com/sketch -->
    <title>39</title>
    <desc>Created with Sketch.</desc>
    <defs></defs>
    <g id="Page-1" stroke="none" stroke-width="1" fill="none" fill-rule="evenodd">
        <g id="Filter" transform="translate(-488.000000, -876.000000)" fill="#FFFFFF" fill-rule="nonzero">
            <g id="39" transform="translate(488.000000, 876.000000)">
                <path d="M3.96166667,30 L20.0383333,30 C22.104,30 23.7843333,28.3193333 23.7843333,26.254 L23.7843333,16.6076667 L23.7843333,8.40866667 C23.7843333,7.91666667 23.5223333,7.28366667 23.1743333,6.93566667 L16.8493333,0.610333333 C16.5016667,0.262333333 15.868,0 15.3763333,0 L7.17666667,0 L3.96133333,0 C1.89566667,0 0.215333333,1.68066667 0.215333333,3.746 L0.215333333,26.2536667 C0.215333333,28.3193333 1.896,30 3.96166667,30 Z M16.55,1.812 L21.9733333,7.23466667 L17.627,7.23466667 C17.033,7.23466667 16.5503333,6.752 16.5503333,6.15833333 L16.5503333,1.812 L16.55,1.812 Z M1.27666667,3.746 C1.27666667,2.26566667 2.481,1.061 3.96166667,1.061 L7.177,1.061 L15.3766667,1.061 C15.4106667,1.061 15.449,1.06633333 15.489,1.073 L15.489,6.15766667 C15.489,7.33666667 16.448,8.296 17.6273333,8.296 L22.7116667,8.296 C22.7186667,8.336 22.7236667,8.374 22.7236667,8.40833333 L22.7236667,16.6076667 L22.7236667,26.2536667 C22.7236667,27.734 21.5196667,28.9386667 20.0386667,28.9386667 L3.962,28.9386667 C2.48166667,28.9386667 1.277,27.7343333 1.277,26.2536667 L1.277,3.746 L1.27666667,3.746 Z" id="Shape"></path>
                <path d="M6.1,21.9616667 L17.9,21.9616667 C18.1933333,21.9616667 18.431,21.7243333 18.431,21.431 C18.431,21.1373333 18.1933333,20.9 17.9,20.9 L6.1,20.9 C5.80666667,20.9 5.569,21.1373333 5.569,21.431 C5.569,21.7243333 5.80666667,21.9616667 6.1,21.9616667 Z" id="Shape"></path>
                <path d="M6.1,16.3346667 L17.9,16.3346667 C18.1933333,16.3346667 18.431,16.097 18.431,15.8036667 C18.431,15.511 18.1933333,15.273 17.9,15.273 L6.1,15.273 C5.80666667,15.273 5.569,15.511 5.569,15.8036667 C5.569,16.097 5.80666667,16.3346667 6.1,16.3346667 Z" id="Shape"></path>
                <path d="M6.1,10.7073333 L13.0773333,10.7073333 C13.3706667,10.7073333 13.608,10.47 13.608,10.1766667 C13.608,9.884 13.3706667,9.646 13.0773333,9.646 L6.1,9.646 C5.80666667,9.646 5.569,9.884 5.569,10.1766667 C5.569,10.47 5.80666667,10.7073333 6.1,10.7073333 Z" id="Shape"></path>
            </g>
        </g>
    </g>
</svg>