<?xml version="1.0" encoding="UTF-8"?>
<svg width="32px" height="30px" viewBox="0 0 32 30" version="1.1" xmlns="http://www.w3.org/2000/svg" xmlns:xlink="http://www.w3.org/1999/xlink">
    <!-- Generator: Sketch 51.2 (57519) - http://www.bohemiancoding.com/sketch -->
    <title>159</title>
    <desc>Created with Sketch.</desc>
    <defs></defs>
    <g id="Page-1" stroke="none" stroke-width="1" fill="none" fill-rule="evenodd">
        <g id="Filter" transform="translate(-331.000000, -233.000000)" fill="#FFFFFF" fill-rule="nonzero">
            <path d="M335.347921,244.015525 C334.728151,243.739905 334.060027,243.830243 333.646376,244.244382 L331.572123,246.326411 C331.203296,246.69662 331,247.190469 331,247.716201 C331,248.242997 331.203296,248.736137 331.572123,249.1067 L334.337441,251.88203 C334.719327,252.265347 335.220508,252.457006 335.722395,252.457006 C336.223929,252.457006 336.725462,252.265347 337.106995,251.88203 L339.181249,249.800356 C339.5949,249.385154 339.684548,248.714526 339.41031,248.091725 C339.223955,247.669438 339.30725,247.302063 339.671489,246.936459 C339.987727,246.619035 340.364671,246.459615 340.810087,246.472369 C341.634212,246.490082 342.640809,247.084897 343.572935,248.105541 L356.618109,262.289694 C357.027525,262.735717 357.580235,262.987955 358.174594,262.999291 C358.189417,263 358.203888,263 358.218712,263 C358.797187,263 359.342486,262.771498 359.758255,262.353816 L362.121217,259.981289 C362.547574,259.553334 362.775929,258.988632 362.764281,258.393108 C362.752281,257.796168 362.501691,257.241385 362.05804,256.830435 L347.924385,243.735654 C345.767896,241.751049 347.231908,239.285349 347.405204,239.011854 C349.065101,236.405864 352.07854,236.135912 354.311971,236.368666 C355.173861,236.457941 356.346695,236.488054 356.550697,235.708312 C356.74411,234.971082 355.868103,234.48361 355.08386,234.141388 C351.13759,232.420712 345.504246,232.341001 341.816684,236.043449 L336.989465,240.888762 C336.575814,241.303964 336.486166,241.973883 336.76111,242.597039 C336.947112,243.019326 336.86417,243.386701 336.499578,243.752305 C336.134634,244.118617 335.768278,244.200807 335.347921,244.015525 Z M347.749678,245.136073 L361.282621,257.673946 C361.495094,257.871273 361.615095,258.134848 361.621095,258.416136 C361.626389,258.69707 361.517329,258.964541 361.312268,259.169662 L358.949659,261.54219 C358.744952,261.747311 358.472479,261.852883 358.197888,261.85182 C357.917297,261.846151 357.655766,261.725701 357.45847,261.512077 L344.967065,247.928762 L347.749678,245.136073 Z M337.308174,244.56464 C338.010886,243.860002 338.188064,242.995944 337.807237,242.132949 C337.733118,241.963963 337.728883,241.770534 337.798413,241.700743 L342.625632,236.855429 C345.933426,233.534882 351.036648,233.629117 354.628209,235.194624 C354.674798,235.215172 354.719269,235.235011 354.761269,235.254141 C354.662445,235.248119 354.55162,235.239616 354.429855,235.226863 C350.769116,234.846025 348.004504,235.940711 346.441313,238.394721 C345.648247,239.645993 344.907064,242.256234 346.919553,244.345702 L344.183529,247.091628 C343.089401,245.977103 341.910214,245.347924 340.834793,245.324897 C340.083022,245.308247 339.400074,245.585284 338.862893,246.125187 C338.160534,246.829824 337.983709,247.693528 338.364183,248.556523 C338.438301,248.725154 338.442184,248.918584 338.372301,248.988729 L336.298047,251.070049 C335.992397,251.377199 335.451686,251.377199 335.146037,251.070049 L332.380718,248.294365 C332.228246,248.140968 332.143892,247.935847 332.143892,247.716201 C332.143892,247.496555 332.228246,247.291435 332.380718,247.138391 L334.454619,245.056717 C334.524855,244.986926 334.717562,244.990115 334.885211,245.064865 C335.745689,245.446411 336.605814,245.268923 337.308174,244.56464 Z" id="159"></path>
        </g>
    </g>
</svg>