<?xml version="1.0" encoding="UTF-8"?>
<svg width="30px" height="28px" viewBox="0 0 30 28" version="1.1" xmlns="http://www.w3.org/2000/svg" xmlns:xlink="http://www.w3.org/1999/xlink">
    <!-- Generator: Sketch 51.2 (57519) - http://www.bohemiancoding.com/sketch -->
    <title>113</title>
    <desc>Created with Sketch.</desc>
    <defs></defs>
    <g id="Page-1" stroke="none" stroke-width="1" fill="none" fill-rule="evenodd">
        <g id="Filter" transform="translate(-486.000000, -236.000000)" fill="#FFFFFF" fill-rule="nonzero">
            <g id="113" transform="translate(486.000000, 236.000000)">
                <path d="M12.858,0.269666667 C9.01533333,0.269666667 5.88966667,3.39633333 5.88966667,7.23833333 C5.88966667,11.0806667 9.01533333,14.207 12.858,14.207 C16.7006667,14.207 19.8263333,11.0806667 19.8263333,7.23833333 C19.8263333,3.396 16.7006667,0.269666667 12.858,0.269666667 Z M12.858,13.1266667 C9.61133333,13.1266667 6.96966667,10.485 6.96966667,7.23833333 C6.96966667,3.99166667 9.61133333,1.35033333 12.858,1.35033333 C16.1043333,1.35033333 18.746,3.99166667 18.746,7.23833333 C18.746,10.485 16.1043333,13.1266667 12.858,13.1266667 Z" id="Shape"></path>
                <path d="M12.858,16.6976667 C2.31,16.6976667 0,21.9446667 0,23.966 C0,25.9043333 1.59833333,27.0636667 3.144,27.0636667 L22.5716667,27.0636667 C24.117,27.0636667 25.7156667,25.9043333 25.7156667,23.966 C25.7153333,21.9446667 23.406,16.6976667 12.858,16.6976667 Z M22.5716667,25.983 L3.144,25.983 C2.14333333,25.983 1.08033333,25.2763333 1.08033333,23.966 C1.08033333,22.3606667 3.244,17.778 12.858,17.778 C22.4716667,17.778 24.6353333,22.3606667 24.6353333,23.966 C24.635,25.2763333 23.572,25.983 22.5716667,25.983 Z" id="Shape"></path>
                <path d="M29.46,10.2696667 L26.2546667,10.2696667 L26.2546667,7.06466667 C26.2546667,6.766 26.013,6.52433333 25.7143333,6.52433333 C25.4156667,6.52433333 25.1743333,6.766 25.1743333,7.06466667 L25.1743333,10.2696667 L21.9693333,10.2696667 C21.6706667,10.2696667 21.4293333,10.5113333 21.4293333,10.8096667 C21.4293333,11.108 21.671,11.35 21.9693333,11.35 L25.1743333,11.35 L25.1743333,14.5546667 C25.1743333,14.8533333 25.416,15.095 25.7143333,15.095 C26.013,15.095 26.2546667,14.853 26.2546667,14.5546667 L26.2546667,11.35 L29.46,11.35 C29.7586667,11.35 30,11.108 30,10.8096667 C30,10.5113333 29.7583333,10.2696667 29.46,10.2696667 Z" id="Shape"></path>
            </g>
        </g>
    </g>
</svg>