<?xml version="1.0" encoding="UTF-8"?>
<svg width="26px" height="30px" viewBox="0 0 26 30" version="1.1" xmlns="http://www.w3.org/2000/svg" xmlns:xlink="http://www.w3.org/1999/xlink">
    <!-- Generator: Sketch 51.2 (57519) - http://www.bohemiancoding.com/sketch -->
    <title>52</title>
    <desc>Created with Sketch.</desc>
    <defs></defs>
    <g id="Page-1" stroke="none" stroke-width="1" fill="none" fill-rule="evenodd">
        <g id="Filter" transform="translate(-791.000000, -233.000000)" fill="#FFFFFF" fill-rule="nonzero">
            <path d="M797.632196,254.966667 C797.819311,254.740333 797.78712,254.406333 797.559429,254.22 L794.366727,251.605333 C794.185983,251.454667 793.95058,251.391 793.720542,251.43 C793.483797,251.470333 793.276226,251.616333 793.151817,251.826333 L791.075103,255.296 C790.924539,255.548 791.007366,255.873 791.260877,256.023333 C791.346387,256.073333 791.440615,256.098333 791.533167,256.098333 C791.715253,256.098333 791.892308,256.005333 791.992237,255.838667 L793.465018,253.378667 C794.465315,259.35 798.343436,263 803.832495,263 C809.307805,263 813.185256,259.348667 814.19796,253.374 L815.674429,255.840333 C815.774358,256.007333 815.951414,256.099667 816.133499,256.099667 C816.225716,256.099667 816.32028,256.076 816.40579,256.025 C816.659301,255.875333 816.742128,255.549333 816.591564,255.297667 L814.515185,251.829 C814.38977,251.615667 814.182199,251.470667 813.945454,251.429667 C813.71441,251.389667 813.479342,251.454333 813.302957,251.602 L810.105561,254.22 C809.87787,254.406667 809.845343,254.740667 810.032459,254.966667 C810.21991,255.192667 810.555578,255.225 810.783268,255.038667 L813.163459,253.091 C812.296624,258.380333 809.019754,261.690333 804.36668,261.924333 L804.36668,244.867 L806.79214,244.867 C807.087233,244.867 807.32599,244.629333 807.32599,244.336 C807.32599,244.043 807.087233,243.805333 806.79214,243.805333 L804.366344,243.805333 L804.366344,241.100667 C806.371633,240.838667 807.926235,239.133667 807.926235,237.069667 C807.926235,234.826 806.089618,233 803.832495,233 C801.575372,233 799.73842,234.826 799.73842,237.069667 C799.73842,239.133333 801.293021,240.838667 803.298646,241.100667 L803.298646,243.805333 L800.873185,243.805333 C800.578428,243.805333 800.339336,244.043 800.339336,244.336 C800.339336,244.629333 800.578428,244.867 800.873185,244.867 L803.298646,244.867 L803.298646,261.924667 C798.630146,261.690667 795.351599,258.38 794.497507,253.087333 L796.880716,255.038667 C797.107736,255.224667 797.44441,255.192667 797.632196,254.966667 Z M800.806454,237.069667 C800.806454,235.410333 802.16388,234.061333 803.832495,234.061333 C805.50111,234.061333 806.858871,235.410667 806.858871,237.069667 C806.858871,238.728667 805.50111,240.077333 803.832495,240.077333 C802.16388,240.077333 800.806454,238.728667 800.806454,237.069667 Z" id="52"></path>
        </g>
    </g>
</svg>