<?xml version="1.0" encoding="UTF-8"?>
<svg width="30px" height="30px" viewBox="0 0 30 30" version="1.1" xmlns="http://www.w3.org/2000/svg" xmlns:xlink="http://www.w3.org/1999/xlink">
    <!-- Generator: Sketch 51.2 (57519) - http://www.bohemiancoding.com/sketch -->
    <title>68</title>
    <desc>Created with Sketch.</desc>
    <defs></defs>
    <g id="Page-1" stroke="none" stroke-width="1" fill="none" fill-rule="evenodd">
        <g id="Filter" transform="translate(-941.000000, -233.000000)" fill="#FFFFFF" fill-rule="nonzero">
            <g id="68" transform="translate(941.000000, 233.000000)">
                <path d="M19.8156667,10.0426667 C19.4153333,9.642 18.883,9.421 18.316,9.421 C17.7496667,9.421 17.2173333,9.642 16.8166667,10.042 L0.621,26.2373333 C0.220666667,26.6383333 0,27.1706667 0,27.7373333 C0,28.3036667 0.221,28.8363333 0.621,29.2356667 L0.757333333,29.373 C1.158,29.7736667 1.69033333,29.994 2.257,29.994 C2.82333333,29.994 3.35633333,29.7736667 3.75666667,29.373 L19.9523333,13.1776667 C20.7786667,12.3506667 20.7786667,11.005 19.9513333,10.1776667 L19.8156667,10.0426667 Z M19.202,12.427 L3.00633333,28.6226667 C2.60633333,29.0233333 1.90766667,29.0226667 1.50833333,28.6233333 L1.37166667,28.4856667 C1.17133333,28.286 1.061,28.02 1.061,27.7373333 C1.061,27.4536667 1.17133333,27.188 1.372,26.988 L17.5676667,10.7923333 C17.7676667,10.592 18.0333333,10.482 18.3163333,10.482 C18.5996667,10.482 18.8653333,10.592 19.0666667,10.793 L19.2023333,10.928 C19.6153333,11.3416667 19.6153333,12.0136667 19.202,12.427 Z" id="Shape"></path>
                <path d="M29.9603333,3.59733333 C29.8523333,3.26466667 29.545,3.03833333 29.118,2.97633333 L26.901,2.656 C26.8896667,2.65166667 26.8663333,2.635 26.87,2.64333333 L25.869,0.617 C25.6783333,0.229 25.3676667,0.006 25.0176667,0.006 C24.667,0.006 24.357,0.229 24.1656667,0.615666667 L23.1753333,2.625 C23.1676667,2.63533333 23.1453333,2.65066667 23.1543333,2.65066667 L20.917,2.97633333 C20.4893333,3.03866667 20.182,3.26466667 20.074,3.59733333 C19.9656667,3.93033333 20.081,4.29433333 20.3906667,4.59566667 L21.9953333,6.158 C22.002,6.16766667 22.0093333,6.19833333 22.0136667,6.18766667 L21.6316667,8.41566667 C21.5566667,8.85366667 21.6926667,9.126 21.8203333,9.27733333 C22.0866667,9.59333333 22.5523333,9.65666667 23.0093333,9.416 L24.9906667,8.373 L25.024,8.36433333 L27.0253333,9.416 C27.2133333,9.51533333 27.399,9.56533333 27.577,9.56533333 C27.8313333,9.56533333 28.057,9.463 28.214,9.27733333 C28.3416667,9.126 28.4776667,8.85366667 28.4026667,8.41566667 L28.0226667,6.20833333 C28.023,6.19466667 28.029,6.17 28.0243333,6.174 L29.643,4.596 C29.953,4.29433333 30.0686667,3.93033333 29.9603333,3.59733333 Z M27.2843333,5.41433333 C27.046,5.64633333 26.9183333,6.03833333 26.9753333,6.366 L27.319,8.37133333 L25.5173333,7.42433333 C25.3353333,7.329 25.145,7.30833333 25.0176667,7.30833333 C24.8896667,7.30833333 24.6996667,7.329 24.517,7.42433333 L22.7153333,8.372 L23.0593333,6.366 C23.116,6.03833333 22.9886667,5.64633333 22.7506667,5.41433333 L21.2933333,3.99366667 L23.307,3.70066667 C23.6366667,3.653 23.97,3.41066667 24.1163333,3.113 L25.0173333,1.28766667 L25.9176667,3.11133333 C26.0646667,3.41033333 26.3976667,3.653 26.7276667,3.70066667 L28.7413333,3.99366667 L27.2843333,5.41433333 Z" id="Shape"></path>
                <path d="M15.1143333,3.44033333 C15.0126667,3.127 14.727,2.91333333 14.33,2.85533333 L12.446,2.58233333 L11.6033333,0.875 C11.426,0.515666667 11.135,0.31 10.8053333,0.31 C10.4753333,0.31 10.1846667,0.515666667 10.0066667,0.875 L9.16433333,2.58233333 L7.279,2.85533333 C6.883,2.91333333 6.59766667,3.12633333 6.49566667,3.44033333 C6.39366667,3.75333333 6.5,4.094 6.786,4.37366667 L8.15033333,5.70366667 L7.828,7.58066667 C7.75866667,7.98466667 7.88666667,8.239 8.00666667,8.38066667 C8.25766667,8.67766667 8.69433333,8.741 9.11966667,8.51733333 L10.8053333,7.63133333 L12.491,8.518 C12.6633333,8.60833333 12.8343333,8.65433333 12.999,8.65433333 C13.2403333,8.65433333 13.4543333,8.557 13.6033333,8.38066667 C13.7233333,8.23866667 13.8516667,7.98466667 13.7823333,7.58 L13.46,5.703 L14.8233333,4.37366667 C15.11,4.094 15.216,3.75366667 15.1143333,3.44033333 Z M12.695,4.967 C12.474,5.18233333 12.356,5.54533333 12.4086667,5.849 L12.678,7.41733333 L11.2693333,6.67666667 C11.099,6.58733333 10.923,6.56866667 10.8053333,6.56866667 C10.6873333,6.56866667 10.511,6.58766667 10.3403333,6.67666667 L8.93266667,7.41733333 L9.20133333,5.85 C9.25366667,5.54533333 9.136,5.182 8.915,4.967 L7.77566667,3.856 L9.35166667,3.62733333 C9.65633333,3.582 9.96433333,3.35766667 10.101,3.082 L10.8053333,1.65466667 L11.5093333,3.082 C11.6456667,3.35766667 11.9536667,3.582 12.26,3.62733333 L13.8343333,3.856 L12.695,4.967 Z" id="Shape"></path>
                <path d="M28.8603333,17.763 L26.9763333,17.4893333 L26.1333333,15.7813333 C25.9556667,15.423 25.6646667,15.217 25.335,15.217 C25.005,15.217 24.714,15.423 24.537,15.782 L23.694,17.4893333 L21.809,17.763 C21.413,17.821 21.1276667,18.034 21.0253333,18.348 C20.9233333,18.661 21.0296667,19.0016667 21.316,19.2806667 L22.6803333,20.6106667 L22.358,22.4876667 C22.2886667,22.8923333 22.417,23.146 22.5366667,23.2876667 C22.7876667,23.586 23.225,23.648 23.6496667,23.425 L25.3353333,22.539 L27.0206667,23.4256667 C27.193,23.516 27.364,23.562 27.5286667,23.562 C27.7696667,23.562 27.984,23.4646667 28.133,23.2876667 C28.2526667,23.1456667 28.381,22.8916667 28.3113333,22.4876667 L27.99,20.61 L29.3533333,19.2813333 C29.64,19.0016667 29.7463333,18.662 29.6446667,18.348 C29.5426667,18.0346667 29.2573333,17.821 28.8603333,17.763 Z M27.225,19.8746667 C27.004,20.09 26.886,20.453 26.939,20.7566667 L27.2076667,22.3243333 L25.7983333,21.583 C25.629,21.4943333 25.453,21.4763333 25.3356667,21.4763333 C25.2176667,21.4763333 25.0416667,21.4946667 24.871,21.5843333 L23.4626667,22.325 L23.7316667,20.7566667 C23.784,20.453 23.666,20.089 23.445,19.874 L22.306,18.7636667 L23.8813333,18.5343333 C24.1863333,18.4896667 24.4946667,18.2653333 24.6313333,17.989 L25.3356667,16.5623333 L26.039,17.9883333 C26.1746667,18.2646667 26.483,18.489 26.7903333,18.535 L28.3646667,18.7636667 L27.225,19.8746667 Z" id="Shape"></path>
            </g>
        </g>
    </g>
</svg>