<?xml version="1.0" encoding="UTF-8"?>
<svg width="32px" height="27px" viewBox="0 0 32 27" version="1.1" xmlns="http://www.w3.org/2000/svg" xmlns:xlink="http://www.w3.org/1999/xlink">
    <!-- Generator: Sketch 51.2 (57519) - http://www.bohemiancoding.com/sketch -->
    <title>Group</title>
    <desc>Created with Sketch.</desc>
    <defs></defs>
    <g id="Page-1" stroke="none" stroke-width="1" fill="none" fill-rule="evenodd">
        <g id="Filter" transform="translate(-1092.000000, -234.000000)" fill-rule="nonzero" stroke="#FFFFFF">
            <g id="Group" transform="translate(1093.000000, 235.000000)">
                <path d="M15,24.7535342 C25.447802,24.7535342 29.781901,21.4591808 29.781901,17.9445685 C29.781901,7.49676646 22.4242001,0.212518601 15,0.212518601 C7.57579985,0.212518601 0.0265066964,6.57693759 0.0265066964,17.0247396 C0.0265066964,21.4893326 4.55219801,24.7535342 15,24.7535342 Z" id="Oval"></path>
                <path d="M15.1351376,0.126023065 L15.1351376,24.8674665" id="Path-2"></path>
                <path d="M3.13802083,6.28394717 C7.23437261,7.97820561 11.2061918,8.82533482 15.0534784,8.82533482 C18.900765,8.82533482 22.665026,7.97820561 26.3462612,6.28394717" id="Path-3"></path>
                <path d="M14.780506,0.104166667 C19.4239831,1.97312431 22.0689174,7.82638414 22.7153088,17.6639461 C22.7153088,22.2371884 21.7120846,24.5238095 19.7056362,24.5238095" id="Path-4"></path>
                <path d="M7.28050595,0.104166667 C11.9239831,1.97312431 14.5689174,7.82638414 15.2153088,17.6639461 C15.2153088,22.2371884 14.2120846,24.5238095 12.2056362,24.5238095" id="Path-4" transform="translate(11.247907, 12.313988) scale(-1, 1) translate(-11.247907, -12.313988) "></path>
                <path d="M0.0804501488,17.3463542 L29.8814174,17.3463542" id="Path-5"></path>
            </g>
        </g>
    </g>
</svg>