<?xml version="1.0" encoding="UTF-8"?>
<svg width="30px" height="30px" viewBox="0 0 30 30" version="1.1" xmlns="http://www.w3.org/2000/svg" xmlns:xlink="http://www.w3.org/1999/xlink">
    <!-- Generator: Sketch 51.2 (57519) - http://www.bohemiancoding.com/sketch -->
    <title>76</title>
    <desc>Created with Sketch.</desc>
    <defs></defs>
    <g id="Page-1" stroke="none" stroke-width="1" fill="none" fill-rule="evenodd">
        <g id="Filter" transform="translate(-330.000000, -380.000000)" fill="#FFFFFF" fill-rule="nonzero">
            <path d="M331.33379,392.994918 L344.134568,395.837321 C344.142235,395.841322 344.155902,395.854991 344.153569,395.841322 L347.002927,408.666477 C347.247596,409.768967 347.743267,410 348.11527,410 C348.11527,410 348.11527,410 348.115603,410 C348.598274,410 348.995611,409.609611 349.29428,408.840169 L359.863706,381.657974 C360.108375,381.028551 359.978373,380.630161 359.825705,380.407796 C359.54337,379.994737 358.985365,379.881721 358.339026,380.13209 L331.159455,390.702925 C330.15478,391.093647 329.975778,391.593719 330.002445,391.943435 C330.028779,392.294151 330.281781,392.760551 331.33379,392.994918 Z M331.543459,391.692399 L358.723362,381.121564 C358.81303,381.086893 358.880364,381.07089 358.933698,381.063889 C358.926698,381.11323 358.910364,381.182906 358.874697,381.273586 L348.304938,408.455781 C348.245271,408.609803 348.190604,408.719151 348.14527,408.795162 C348.111937,408.713151 348.07427,408.597467 348.038603,408.436111 L345.189244,395.610956 C345.105244,395.230902 344.767241,394.893187 344.387571,394.808842 L331.564125,391.959104 C331.403124,391.923765 331.28679,391.88576 331.204122,391.852422 C331.28079,391.807416 331.389791,391.752074 331.543459,391.692399 Z" id="76"></path>
        </g>
    </g>
</svg>