<?xml version="1.0" encoding="UTF-8"?>
<svg width="39px" height="36px" viewBox="0 0 39 36" version="1.1" xmlns="http://www.w3.org/2000/svg" xmlns:xlink="http://www.w3.org/1999/xlink">
    <!-- Generator: Sketch 51.2 (57519) - http://www.bohemiancoding.com/sketch -->
    <title>Group 2</title>
    <desc>Created with Sketch.</desc>
    <defs></defs>
    <g id="Page-1" stroke="none" stroke-width="1" fill="none" fill-rule="evenodd">
        <g id="Filter" transform="translate(-481.000000, -375.000000)" fill="#FFFFFF" fill-rule="nonzero">
            <g id="Group-2" transform="translate(481.000000, 375.000000)">
                <polygon id="Path-6" points="19.3165651 2.19606701 20.0098549 0 20.70852 2.19606701 23 2.19606701 21.1582826 3.6032969 21.8770382 5.79345099 20.0098549 4.44091561 18.1627397 5.79345099 18.8757839 3.6032969 17 2.19606701"></polygon>
                <polygon id="Path-6" points="18.3165651 32.196067 19.0098549 30 19.70852 32.196067 22 32.196067 20.1582826 33.6032969 20.8770382 35.793451 19.0098549 34.4409156 17.1627397 35.793451 17.8757839 33.6032969 16 32.196067"></polygon>
                <polygon id="Path-6" points="29.3165651 6.19606701 30.0098549 4 30.70852 6.19606701 33 6.19606701 31.1582826 7.6032969 31.8770382 9.79345099 30.0098549 8.44091561 28.1627397 9.79345099 28.8757839 7.6032969 27 6.19606701"></polygon>
                <polygon id="Path-6" points="29.3165651 27.196067 30.0098549 25 30.70852 27.196067 33 27.196067 31.1582826 28.6032969 31.8770382 30.793451 30.0098549 29.4409156 28.1627397 30.793451 28.8757839 28.6032969 27 27.196067"></polygon>
                <polygon id="Path-6" points="8.31656513 6.19606701 9.00985486 4 9.70851998 6.19606701 12 6.19606701 10.1582826 7.6032969 10.8770382 9.79345099 9.00985486 8.44091561 7.16273965 9.79345099 7.87578391 7.6032969 6 6.19606701"></polygon>
                <polygon id="Path-6" points="2.31656513 17.196067 3.00985486 15 3.70851998 17.196067 6 17.196067 4.15828257 18.6032969 4.87703817 20.793451 3.00985486 19.4409156 1.16273965 20.793451 1.87578391 18.6032969 0 17.196067"></polygon>
                <polygon id="Path-6" points="35.3165651 17.196067 36.0098549 15 36.70852 17.196067 39 17.196067 37.1582826 18.6032969 37.8770382 20.793451 36.0098549 19.4409156 34.1627397 20.793451 34.8757839 18.6032969 33 17.196067"></polygon>
                <polygon id="Path-6" points="8.31656513 27.196067 9.00985486 25 9.70851998 27.196067 12 27.196067 10.1582826 28.6032969 10.8770382 30.793451 9.00985486 29.4409156 7.16273965 30.793451 7.87578391 28.6032969 6 27.196067"></polygon>
            </g>
        </g>
    </g>
</svg>