<?xml version="1.0" encoding="UTF-8"?>
<svg width="24px" height="30px" viewBox="0 0 24 30" version="1.1" xmlns="http://www.w3.org/2000/svg" xmlns:xlink="http://www.w3.org/1999/xlink">
    <!-- Generator: Sketch 51.2 (57519) - http://www.bohemiancoding.com/sketch -->
    <title>31</title>
    <desc>Created with Sketch.</desc>
    <defs></defs>
    <g id="Page-1" stroke="none" stroke-width="1" fill="none" fill-rule="evenodd">
        <g id="Filter" transform="translate(-638.000000, -523.000000)" fill="#FFFFFF" fill-rule="nonzero">
            <g id="31" transform="translate(638.000000, 523.000000)">
                <path d="M12.8803333,13.0366667 L11.1203333,13.0366667 C10.765,13.0366667 10.4773333,13.3246667 10.4773333,13.6796667 L10.4773333,14.6783333 C10.4773333,15.0336667 10.7646667,15.3216667 11.1203333,15.3216667 L12.8803333,15.3216667 C13.2353333,15.3216667 13.5233333,15.034 13.5233333,14.6783333 L13.5233333,13.6796667 C13.523,13.325 13.2353333,13.0366667 12.8803333,13.0366667 Z" id="Shape"></path>
                <path d="M7.109,13.0366667 L5.34933333,13.0366667 C4.994,13.0366667 4.70633333,13.3246667 4.70633333,13.6796667 L4.70633333,14.6783333 C4.70633333,15.0336667 4.99366667,15.3216667 5.34933333,15.3216667 L7.109,15.3216667 C7.46433333,15.3216667 7.75233333,15.034 7.75233333,14.6783333 L7.75233333,13.6796667 C7.75233333,13.325 7.46466667,13.0366667 7.109,13.0366667 Z" id="Shape"></path>
                <path d="M18.651,13.0366667 L16.891,13.0366667 C16.536,13.0366667 16.2476667,13.3246667 16.2476667,13.6796667 L16.2476667,14.6783333 C16.2476667,15.0336667 16.5356667,15.3216667 16.891,15.3216667 L18.651,15.3216667 C19.006,15.3216667 19.294,15.034 19.294,14.6783333 L19.294,13.6796667 C19.294,13.325 19.0063333,13.0366667 18.651,13.0366667 Z" id="Shape"></path>
                <path d="M12.8803333,18.0466667 L11.1203333,18.0466667 C10.765,18.0466667 10.4773333,18.3343333 10.4773333,18.6896667 L10.4773333,19.6883333 C10.4773333,20.043 10.7646667,20.3313333 11.1203333,20.3313333 L12.8803333,20.3313333 C13.2353333,20.3313333 13.5233333,20.0433333 13.5233333,19.6883333 L13.5233333,18.6896667 C13.523,18.3343333 13.2353333,18.0466667 12.8803333,18.0466667 Z" id="Shape"></path>
                <path d="M7.109,18.0466667 L5.34933333,18.0466667 C4.994,18.0466667 4.70633333,18.3343333 4.70633333,18.6896667 L4.70633333,19.6883333 C4.70633333,20.043 4.99366667,20.3313333 5.34933333,20.3313333 L7.109,20.3313333 C7.46433333,20.3313333 7.75233333,20.0433333 7.75233333,19.6883333 L7.75233333,18.6896667 C7.75233333,18.3343333 7.46466667,18.0466667 7.109,18.0466667 Z" id="Shape"></path>
                <path d="M12.8803333,23.0553333 L11.1203333,23.0553333 C10.765,23.0553333 10.4773333,23.343 10.4773333,23.6986667 L10.4773333,24.697 C10.4773333,25.0516667 10.7646667,25.3403333 11.1203333,25.3403333 L12.8803333,25.3403333 C13.2353333,25.3403333 13.5233333,25.052 13.5233333,24.697 L13.5233333,23.6986667 C13.523,23.343 13.2353333,23.0553333 12.8803333,23.0553333 Z" id="Shape"></path>
                <path d="M7.109,23.0553333 L5.34933333,23.0553333 C4.994,23.0553333 4.70633333,23.343 4.70633333,23.6986667 L4.70633333,24.697 C4.70633333,25.0516667 4.99366667,25.3403333 5.34933333,25.3403333 L7.109,25.3403333 C7.46433333,25.3403333 7.75233333,25.052 7.75233333,24.697 L7.75233333,23.6986667 C7.75233333,23.343 7.46466667,23.0553333 7.109,23.0553333 Z" id="Shape"></path>
                <path d="M18.651,18.0466667 L16.891,18.0466667 C16.536,18.0466667 16.2476667,18.3343333 16.2476667,18.6896667 L16.2476667,23.0556667 L16.2476667,23.8173333 L16.2476667,24.6973333 C16.2476667,25.052 16.5356667,25.3406667 16.891,25.3406667 L18.651,25.3406667 C19.006,25.3406667 19.294,25.0523333 19.294,24.6973333 L19.294,23.8173333 L19.294,23.0556667 L19.294,18.6893333 C19.294,18.3343333 19.0063333,18.0466667 18.651,18.0466667 Z" id="Shape"></path>
                <path d="M0.215333333,26.254 C0.215333333,28.3193333 1.896,30 3.96166667,30 L20.0383333,30 C22.104,30 23.7843333,28.3193333 23.7843333,26.254 L23.7843333,3.746 C23.7846667,1.68066667 22.1043333,0 20.0383333,0 L3.96166667,0 C1.896,0 0.215666667,1.68066667 0.215666667,3.746 L0.215666667,26.254 L0.215333333,26.254 Z M1.27666667,3.746 C1.27666667,2.265 2.48066667,1.061 3.96166667,1.061 L20.0383333,1.061 C21.519,1.061 22.7233333,2.26466667 22.7233333,3.746 L22.7233333,26.2536667 C22.7233333,27.734 21.5193333,28.9386667 20.0383333,28.9386667 L3.96166667,28.9386667 C2.481,28.9386667 1.27666667,27.7343333 1.27666667,26.2536667 L1.27666667,3.746 Z" id="Shape"></path>
                <path d="M5.24766667,9.904 L18.7523333,9.904 C19.7543333,9.904 20.569,9.08866667 20.569,8.087 L20.569,5.836 C20.569,4.83433333 19.7543333,4.01933333 18.7523333,4.01933333 L5.24766667,4.01933333 C4.24566667,4.01933333 3.431,4.83433333 3.431,5.836 L3.431,8.087 C3.431,9.08866667 4.24566667,9.904 5.24766667,9.904 Z M4.49233333,5.836 C4.49233333,5.419 4.83133333,5.08066667 5.248,5.08066667 L18.7526667,5.08066667 C19.1693333,5.08066667 19.5083333,5.419 19.5083333,5.836 L19.5083333,8.087 C19.5083333,8.50333333 19.1693333,8.84233333 18.7526667,8.84233333 L5.24766667,8.84233333 C4.831,8.84233333 4.492,8.50333333 4.492,8.087 L4.492,5.836 L4.49233333,5.836 Z" id="Shape"></path>
            </g>
        </g>
    </g>
</svg>