<?xml version="1.0" encoding="UTF-8"?>
<svg width="30px" height="30px" viewBox="0 0 30 30" version="1.1" xmlns="http://www.w3.org/2000/svg" xmlns:xlink="http://www.w3.org/1999/xlink">
    <!-- Generator: Sketch 51.2 (57519) - http://www.bohemiancoding.com/sketch -->
    <title>120</title>
    <desc>Created with Sketch.</desc>
    <defs></defs>
    <g id="Page-1" stroke="none" stroke-width="1" fill="none" fill-rule="evenodd">
        <g id="Filter" transform="translate(-633.000000, -379.000000)" fill="#FFFFFF" fill-rule="nonzero">
            <path d="M657.646,389.707 C660.598,389.707 663,387.305333 663,384.353667 C663,381.401333 660.598333,379 657.646,379 C654.694333,379 652.292333,381.401333 652.292333,384.354 C652.292333,384.987333 652.408667,385.593 652.612,386.157667 L642.688667,390.871 C641.715333,389.526 640.137333,388.646 638.353667,388.646 C635.402,388.646 633,391.047667 633,394 C633,396.951333 635.402,399.354 638.353667,399.354 C640.137333,399.354 641.715333,398.474 642.688667,397.129 L652.612,401.842333 C652.409,402.407333 652.292667,403.013 652.292667,403.646333 C652.292667,406.598 654.694333,409 657.646,409 C660.598333,409 663,406.598 663,403.646 C663,400.694 660.598333,398.292333 657.646,398.292333 C655.705333,398.292333 654.007333,399.334 653.068333,400.883667 L643.224667,396.208667 C643.531667,395.534333 643.707667,394.788 643.707667,394 C643.707667,393.212 643.532,392.465333 643.224667,391.791333 L653.068667,387.115333 C654.007667,388.665667 655.705333,389.707 657.646,389.707 Z M657.646,380.061 C660.013333,380.061 661.938667,381.986667 661.938667,384.354 C661.938667,386.721 660.013333,388.646333 657.646,388.646333 C655.279,388.646333 653.353667,386.721 653.353667,384.354 C653.354,381.986667 655.279333,380.061 657.646,380.061 Z M638.353667,398.292667 C635.986667,398.292667 634.061333,396.367333 634.061333,394 C634.061333,391.632667 635.987,389.707 638.353667,389.707 C640.720667,389.707 642.646333,391.632667 642.646333,394 C642.646333,396.367333 640.720667,398.292667 638.353667,398.292667 Z M657.646,399.354 C660.013333,399.354 661.938667,401.279333 661.938667,403.646333 C661.938667,406.013667 660.013333,407.939 657.646,407.939 C655.279,407.939 653.353667,406.013667 653.353667,403.646333 C653.354,401.279333 655.279333,399.354 657.646,399.354 Z" id="120"></path>
        </g>
    </g>
</svg>