<?xml version="1.0" encoding="UTF-8"?>
<svg width="30px" height="26px" viewBox="0 0 30 26" version="1.1" xmlns="http://www.w3.org/2000/svg" xmlns:xlink="http://www.w3.org/1999/xlink">
    <!-- Generator: Sketch 51.2 (57519) - http://www.bohemiancoding.com/sketch -->
    <title>90</title>
    <desc>Created with Sketch.</desc>
    <defs></defs>
    <g id="Page-1" stroke="none" stroke-width="1" fill="none" fill-rule="evenodd">
        <g id="Filter" transform="translate(-789.000000, -382.000000)" fill="#FFFFFF" fill-rule="nonzero">
            <path d="M811.724654,382 C809.740996,382 807.739005,382.763545 806.232679,384.09494 C804.911685,385.262813 804.083688,387.224746 804.039022,387.333208 C804.025689,387.370357 804.012689,387.403195 804.000355,387.432383 C803.985022,387.396892 803.968355,387.355763 803.951022,387.307668 C803.916356,387.224746 803.088693,385.262813 801.767365,384.09494 C800.261039,382.763545 798.259714,382 796.275723,382 C793.161071,382 790.40175,384.096599 789.409754,387.217118 C787.654762,392.738393 791.604077,399.529701 799.974373,405.384654 C801.107368,406.177057 803.090359,407.397336 803.174359,407.449411 C803.402025,407.589715 803.695357,407.666667 803.999689,407.666667 C804.304021,407.666667 804.597353,407.589715 804.825352,407.449411 C804.909351,407.397668 806.891676,406.177057 808.025004,405.384654 C816.3953,399.529701 820.345282,392.738393 818.59029,387.217118 C817.598628,384.096599 814.839307,382 811.724654,382 Z M807.41534,404.520939 C806.308345,405.295762 804.288354,406.53926 804.268354,406.551532 C804.221021,406.580389 804.126021,406.611236 804.000355,406.611236 C803.874689,406.611236 803.779356,406.580389 803.732356,406.551532 C803.712357,406.53926 801.692366,405.295762 800.585037,404.520939 C792.612406,398.944604 788.81309,392.594772 790.421416,387.535206 C791.273079,384.8555 793.626068,383.055099 796.276057,383.055099 C798.004049,383.055099 799.748374,383.72146 801.063368,384.883694 C802.197363,385.886386 802.961027,387.686788 802.962027,387.686788 C803.264692,388.532592 803.742356,388.658965 804.000355,388.658965 C804.258354,388.658965 804.736352,388.532592 805.028351,387.712328 C805.036017,387.694416 805.796347,385.892688 806.937342,384.884026 C808.252003,383.721791 809.997328,383.055431 811.724654,383.055431 C814.374975,383.055431 816.727965,384.855832 817.579294,387.535538 C819.187954,392.594772 815.387638,398.944936 807.41534,404.520939 Z" id="90"></path>
        </g>
    </g>
</svg>