<?xml version="1.0" encoding="UTF-8"?>
<svg width="30px" height="16px" viewBox="0 0 30 16" version="1.1" xmlns="http://www.w3.org/2000/svg" xmlns:xlink="http://www.w3.org/1999/xlink">
    <!-- Generator: Sketch 51.2 (57519) - http://www.bohemiancoding.com/sketch -->
    <title>130</title>
    <desc>Created with Sketch.</desc>
    <defs></defs>
    <g id="Page-1" stroke="none" stroke-width="1" fill="none" fill-rule="evenodd">
        <g id="Filter" transform="translate(-942.000000, -385.000000)" fill="#FFFFFF" fill-rule="nonzero">
            <path d="M970.921333,386.512463 C970.225,386.114676 969.344333,386.197058 968.439333,386.744477 L963.961667,389.455007 L963.961667,388.778131 C963.961667,386.694712 962.281,385 960.215667,385 L945.746,385 C943.680667,385.000336 942,386.695048 942,388.778467 L942,396.887863 C942,398.971283 943.680667,400.666667 945.746,400.666667 L960.215333,400.666667 C962.280667,400.666667 963.961333,398.971283 963.961333,396.887863 L963.961333,396.210988 L968.439,398.921517 C968.966333,399.240957 969.486333,399.401686 969.965667,399.401686 C970.308667,399.401686 970.630667,399.319304 970.921,399.153868 C971.617,398.756417 972,397.951766 972,396.887863 L972,388.778467 C972,387.714565 971.617,386.909577 970.921333,386.512463 Z M962.9,396.887863 C962.9,398.380824 961.696,399.595703 960.215333,399.595703 L945.746,399.595703 C944.265667,399.595703 943.061,398.38116 943.061,396.887863 L943.061,388.778467 C943.061,387.285171 944.265333,386.070291 945.746,386.070291 L960.215333,386.070291 C961.695667,386.070291 962.9,387.285171 962.9,388.778467 L962.9,396.887863 Z M970.938667,396.887863 C970.938667,397.53952 970.741667,398.026077 970.397667,398.222449 C970.055,398.418148 969.539333,398.339128 968.984667,398.003549 L963.961667,394.963492 L963.961667,390.703175 L968.984667,387.662782 C969.539333,387.327538 970.054667,387.247847 970.397667,387.443882 C970.741667,387.640253 970.938667,388.12681 970.938667,388.778467 L970.938667,396.887863 Z" id="130"></path>
        </g>
    </g>
</svg>