<?xml version="1.0" encoding="UTF-8"?>
<svg width="30px" height="30px" viewBox="0 0 30 30" version="1.1" xmlns="http://www.w3.org/2000/svg" xmlns:xlink="http://www.w3.org/1999/xlink">
    <!-- Generator: Sketch 51.2 (57519) - http://www.bohemiancoding.com/sketch -->
    <title>82</title>
    <desc>Created with Sketch.</desc>
    <defs></defs>
    <g id="Page-1" stroke="none" stroke-width="1" fill="none" fill-rule="evenodd">
        <g id="Filter" transform="translate(-636.000000, -234.000000)" fill="#FFFFFF" fill-rule="nonzero">
            <path d="M651,264 C659.271,264 666,257.270667 666,249 C666,240.729333 659.271,234 651,234 C642.729,234 636,240.729333 636,249 C636,257.270667 642.729333,264 651,264 Z M654.851667,262.393 C656.324667,261.09 657.554333,259.064667 658.388667,256.583 C659.681667,256.811333 660.913,257.102333 662.074667,257.450667 C660.281,259.796333 657.759667,261.555333 654.851667,262.393 Z M662.716333,256.536 C661.457,256.141667 660.115333,255.814333 658.704333,255.560333 C659.215667,253.727333 659.518,251.686 659.561333,249.530333 L664.925,249.530333 C664.828,252.104667 664.03,254.500667 662.716333,256.536 Z M664.925,248.469333 L659.561667,248.469333 C659.518333,246.313667 659.216,244.272 658.704333,242.439 C660.115667,242.185333 661.457333,241.857667 662.716667,241.463 C664.03,243.498667 664.828,245.895333 664.925,248.469333 Z M662.074667,240.549 C660.913333,240.897333 659.681667,241.188333 658.388667,241.416 C657.554333,238.934667 656.324333,236.909333 654.851,235.606333 C657.759333,236.444333 660.280667,238.203 662.074667,240.549 Z M651.530667,235.099667 C653.982,235.419333 656.111667,237.932 657.353667,241.586667 C655.502,241.859667 653.545,242.006667 651.530667,242.029333 L651.530667,235.099667 Z M651.530667,243.090333 C653.655333,243.067333 655.718,242.905667 657.669333,242.61 C658.162333,244.377667 658.458,246.363667 658.500667,248.469333 L651.530667,248.469333 L651.530667,243.090333 Z M651.530667,249.530667 L658.500667,249.530667 C658.458,251.635667 658.162333,253.622 657.669333,255.39 C655.718,255.093333 653.655333,254.933 651.530667,254.909 L651.530667,249.530667 Z M651.530667,255.970333 C653.545,255.992667 655.502,256.139667 657.353333,256.413 C656.111667,260.068 653.982333,262.58 651.530667,262.899667 L651.530667,255.970333 Z M650.469333,262.899667 C648.018,262.58 645.888333,260.068 644.646333,256.413 C646.498,256.139667 648.455,255.992667 650.469333,255.970333 L650.469333,262.899667 Z M650.469333,254.909 C648.344667,254.933 646.282,255.093667 644.330667,255.39 C643.837667,253.622 643.542,251.635667 643.499,249.530667 L650.469333,249.530667 L650.469333,254.909 Z M650.469333,248.469333 L643.499,248.469333 C643.542,246.363667 643.837667,244.377667 644.330667,242.61 C646.282,242.905667 648.345,243.067333 650.469333,243.090333 L650.469333,248.469333 Z M650.469333,235.099667 L650.469333,242.029667 C648.455,242.007 646.498,241.86 644.646333,241.587 C645.888,237.932 648.018,235.419333 650.469333,235.099667 Z M647.149,235.606333 C645.675667,236.909333 644.446,238.934667 643.611667,241.416 C642.318333,241.188667 641.087,240.897333 639.925,240.549 C641.719333,238.203 644.240667,236.444333 647.149,235.606333 Z M639.283667,241.463667 C640.543,241.858 641.884667,242.185667 643.296,242.439333 C642.784333,244.272333 642.482,246.314 642.439,248.469667 L637.074667,248.469667 C637.171667,245.895333 637.969667,243.498667 639.283667,241.463667 Z M637.074667,249.530667 L642.439,249.530667 C642.482,251.686333 642.784333,253.727667 643.296,255.560333 C641.884667,255.814 640.542667,256.142 639.283333,256.536333 C637.969667,254.500667 637.171667,252.104333 637.074667,249.530667 Z M643.611667,256.583 C644.445667,259.064333 645.675333,261.09 647.148667,262.393 C644.24,261.555333 641.719,259.796333 639.925,257.450667 C641.087,257.102333 642.318333,256.811333 643.611667,256.583 Z" id="82"></path>
        </g>
    </g>
</svg>