<?xml version="1.0" encoding="UTF-8"?>
<svg width="30px" height="25px" viewBox="0 0 30 25" version="1.1" xmlns="http://www.w3.org/2000/svg" xmlns:xlink="http://www.w3.org/1999/xlink">
    <!-- Generator: Sketch 51.2 (57519) - http://www.bohemiancoding.com/sketch -->
    <title>28</title>
    <desc>Created with Sketch.</desc>
    <defs></defs>
    <g id="Page-1" stroke="none" stroke-width="1" fill="none" fill-rule="evenodd">
        <g id="Filter" transform="translate(-1093.000000, -379.000000)" fill="#FFFFFF" fill-rule="nonzero">
            <path d="M1121.378,380.344464 C1120.23233,379.731351 1118.36233,379 1115.958,379 C1112.531,379 1109.26167,380.464695 1108.14333,381.021014 C1108.06433,381.060538 1107.936,381.060538 1107.857,381.021014 C1106.73867,380.464363 1103.469,379 1100.042,379 C1097.638,379 1095.76767,379.731351 1094.62233,380.344796 C1093.74267,380.816089 1093.46767,381.042602 1093.421,381.08279 C1093.17333,381.300336 1093,381.682618 1093,382.011759 L1093,402.515835 C1093,403.217294 1093.395,403.531157 1093.78667,403.531157 C1093.913,403.531157 1094.09967,403.496948 1094.29867,403.343504 L1095.123,402.902434 C1096.16133,402.346116 1097.85767,401.683516 1100.04167,401.683516 C1102.43733,401.683516 1104.78933,402.464022 1106.34133,403.118651 L1107.22067,403.489641 C1107.44,403.604226 1107.71533,403.666667 1108.00033,403.666667 C1108.285,403.666667 1108.56,403.604226 1108.779,403.489641 L1109.657,403.119316 C1111.209,402.464354 1113.562,401.683516 1115.958,401.683516 C1118.14233,401.683516 1119.83867,402.346116 1120.877,402.902434 L1121.70167,403.343504 C1121.90033,403.49728 1122.08733,403.531157 1122.21367,403.531157 C1122.60533,403.531157 1123,403.217626 1123,402.515835 L1123,382.011759 C1123,381.682618 1122.82667,381.301 1122.57933,381.083122 C1122.53333,381.042602 1122.258,380.815757 1121.378,380.344464 Z M1107.46933,402.286332 C1107.46933,402.374679 1107.40333,402.418188 1107.32133,402.383979 L1106.75533,402.144845 C1105.113,401.452353 1102.61567,400.62568 1100.04167,400.62568 C1097.637,400.62568 1095.766,401.357363 1094.62033,401.971141 L1094.20267,402.194 C1094.125,402.236181 1094.06133,402.19865 1094.06133,402.109971 L1094.06133,382.016077 C1094.06433,381.979543 1094.10067,381.899499 1094.11633,381.881564 C1094.119,381.879571 1094.35267,381.689261 1095.125,381.275758 C1096.163,380.720104 1097.85867,380.057503 1100.042,380.057503 C1103.157,380.057503 1106.23367,381.407946 1107.32567,381.941015 C1107.40533,381.979875 1107.46967,382.083832 1107.46967,382.17251 L1107.46967,402.286332 L1107.46933,402.286332 Z M1121.93867,402.109971 C1121.93867,402.19865 1121.87533,402.236181 1121.79667,402.194 L1121.37933,401.970808 C1120.23333,401.357031 1118.36267,400.625348 1115.95767,400.625348 C1113.38367,400.625348 1110.885,401.452021 1109.24233,402.145509 L1108.67833,402.383647 C1108.59667,402.418188 1108.53033,402.374347 1108.53033,402.286 L1108.53033,382.172178 C1108.53033,382.083167 1108.59467,381.97921 1108.67467,381.940683 C1109.76667,381.407946 1112.84333,380.057171 1115.958,380.057171 C1118.142,380.057171 1119.83767,380.719772 1120.87533,381.275426 C1121.63267,381.680625 1121.87233,381.8716 1121.87367,381.872264 C1121.89933,381.899499 1121.936,381.97921 1121.93867,382.011095 L1121.93867,402.109971 Z" id="28"></path>
        </g>
    </g>
</svg>