<?xml version="1.0" encoding="UTF-8"?>
<svg width="1024px" height="1024px" viewBox="0 0 1024 1024" version="1.1" xmlns="http://www.w3.org/2000/svg" xmlns:xlink="http://www.w3.org/1999/xlink">
    <!-- Generator: Sketch 51.2 (57519) - http://www.bohemiancoding.com/sketch -->
    <title>locate</title>
    <desc>Created with Sketch.</desc>
    <defs>
        <path d="M45.5267001,443.559853 L482.459937,540.580569 C482.721628,540.717122 483.188121,541.183677 483.108476,540.717122 L580.366569,978.482423 C588.717931,1016.11408 605.636834,1024 618.334545,1024 C618.334545,1024 618.334545,1024 618.345923,1024 C634.821089,1024 648.383518,1010.67473 658.578096,984.411087 L1019.34782,56.5921683 C1027.69919,35.1078717 1023.26181,21.5094955 1018.05075,13.9194395 C1008.41368,-0.179630148 989.367117,-4.03724483 967.305414,4.50868033 L39.5760704,365.326517 C5.28314882,378.663167 -0.826771189,395.732258 0.0834589796,407.669243 C0.982311271,419.640366 9.61811999,435.560138 45.5267001,443.559853 Z M52.6833848,399.100559 L980.424106,38.2827228 C983.484755,37.0992658 985.783086,36.5530548 987.603546,36.3140875 C987.364611,37.9982379 986.807095,40.3765313 985.589662,43.4717266 L624.808557,971.290645 C622.771917,976.547926 620.905945,980.280367 619.358554,982.874869 C618.220766,980.075538 616.935066,976.126888 615.717633,970.619261 L518.45954,532.85396 C515.592315,519.881451 504.055147,508.354124 491.095745,505.475137 L53.3888132,408.204074 C47.8932986,406.997859 43.9224195,405.700608 41.1007059,404.562668 C43.7176177,403.02645 47.4381835,401.137471 52.6833848,399.100559 Z" id="path-1"></path>
    </defs>
    <g id="Symbols" stroke="none" stroke-width="1" fill="none" fill-rule="evenodd">
        <g id="locate">
            <mask id="mask-2" fill="white">
                <use xlink:href="#path-1"></use>
            </mask>
            <use id="76" fill="#000000" fill-rule="nonzero" xlink:href="#path-1"></use>
            <g id="null-mask" mask="url(#mask-2)"></g>
        </g>
    </g>
</svg>