<?xml version="1.0" encoding="UTF-8"?>
<svg width="25px" height="30px" viewBox="0 0 25 30" version="1.1" xmlns="http://www.w3.org/2000/svg" xmlns:xlink="http://www.w3.org/1999/xlink">
    <!-- Generator: Sketch 51.2 (57519) - http://www.bohemiancoding.com/sketch -->
    <title>75</title>
    <desc>Created with Sketch.</desc>
    <defs></defs>
    <g id="Page-1" stroke="none" stroke-width="1" fill="none" fill-rule="evenodd">
        <g id="Filter" transform="translate(-335.000000, -524.000000)" fill="#FFFFFF" fill-rule="nonzero">
            <g id="75" transform="translate(334.833333, 524.000000)">
                <path d="M16.8656667,16.6186667 C17.0783333,16.8313333 17.4256667,16.833 17.62,16.603 C18.6096667,15.435 19.1493333,13.9686667 19.1493333,12.42 C19.1493333,10.689 18.4753333,9.06166667 17.251,7.836 C16.0266667,6.612 14.3983333,5.938 12.6666667,5.938 C10.9353333,5.938 9.307,6.61166667 8.083,7.836 C6.85833333,9.061 6.18433333,10.689 6.18433333,12.42 C6.18433333,13.969 6.72433333,15.435 7.714,16.603 C7.90833333,16.8326667 8.25566667,16.8313333 8.46833333,16.6186667 C8.68066667,16.406 8.67833333,16.0626667 8.488,15.8306667 C7.701,14.87 7.27333333,13.678 7.27333333,12.4203333 C7.27333333,10.98 7.83433333,9.62566667 8.853,8.60633333 C9.87133333,7.58766667 11.2256667,7.02633333 12.6666667,7.02633333 C14.1076667,7.02633333 15.4626667,7.588 16.4806667,8.60633333 C17.4993333,9.626 18.06,10.98 18.06,12.4203333 C18.06,13.678 17.6326667,14.8703333 16.8456667,15.83 C16.6556667,16.0626667 16.653,16.4063333 16.8656667,16.6186667 Z" id="Shape"></path>
                <path d="M21.064,20.8176667 C21.2766667,21.0303333 21.6223333,21.031 21.8253333,20.8096667 C23.9326667,18.5136667 25.0866667,15.5556667 25.0866667,12.4203333 C25.0866667,9.10233333 23.7946667,5.983 21.449,3.638 C19.1033333,1.29166667 15.9843333,0 12.6666667,0 C9.34866667,0 6.23,1.29166667 3.884,3.638 C1.53833333,5.98366667 0.246333333,9.103 0.246333333,12.4203333 C0.246333333,15.5556667 1.40033333,18.5136667 3.50766667,20.8096667 C3.71066667,21.031 4.05633333,21.0303333 4.269,20.8176667 C4.48166667,20.605 4.48033333,20.261 4.278,20.0386667 C2.376,17.9493333 1.33466667,15.2653333 1.33466667,12.4203333 C1.33466667,9.39366667 2.51333333,6.54833333 4.654,4.40766667 C6.79466667,2.26733333 9.63966667,1.089 12.6666667,1.089 C15.6936667,1.089 18.5386667,2.26733333 20.6793333,4.40766667 C22.8196667,6.54766667 23.9983333,9.393 23.9983333,12.4203333 C23.9983333,15.2653333 22.957,17.9496667 21.055,20.0386667 C20.853,20.261 20.8516667,20.605 21.064,20.8176667 Z" id="Shape"></path>
                <path d="M6.095,29.8006667 C6.22666667,29.9093333 6.41333333,30 6.67,30 C6.934,30 7.273,29.9033333 7.701,29.631 L12.6666667,26.4713333 L17.6323333,29.631 C18.0606667,29.9033333 18.3986667,30 18.6633333,30 C18.92,30 19.1066667,29.9093333 19.2383333,29.8006667 C19.5053333,29.5816667 19.747,29.125 19.3843333,28.1926667 L13.7716667,13.7603333 C13.4396667,12.906 12.9366667,12.7793333 12.6666667,12.7793333 C12.3966667,12.7793333 11.8936667,12.9063333 11.5616667,13.7603333 L5.949,28.192 C5.58633333,29.125 5.828,29.5816667 6.095,29.8006667 Z M18.3693333,28.587 C18.4103333,28.692 18.4363333,28.777 18.4523333,28.844 C18.3896667,28.815 18.3116667,28.773 18.2166667,28.7126667 L13.68,25.826 L16.5786667,23.9813333 L18.3693333,28.587 Z M12.5763333,14.155 C12.6083333,14.0733333 12.6393333,14.0096667 12.6666667,13.9623333 C12.694,14.01 12.7253333,14.0733333 12.757,14.155 L16.1763333,22.9473333 L12.6666667,25.1813333 L9.15666667,22.9473333 L12.5763333,14.155 Z M6.964,28.587 L8.75466667,23.9816667 L11.6533333,25.8263333 L7.11633333,28.713 C7.02166667,28.7726667 6.94333333,28.8153333 6.881,28.8443333 C6.89666667,28.7763333 6.923,28.692 6.964,28.587 Z" id="Shape"></path>
            </g>
        </g>
    </g>
</svg>