<?xml version="1.0" encoding="UTF-8"?>
<svg width="1024px" height="1024px" viewBox="0 0 1024 1024" version="1.1" xmlns="http://www.w3.org/2000/svg" xmlns:xlink="http://www.w3.org/1999/xlink">
    <!-- Generator: Sketch 51.2 (57519) - http://www.bohemiancoding.com/sketch -->
    <title>mobile</title>
    <desc>Created with Sketch.</desc>
    <defs>
        <path d="M267,77 C267,34.365248 301.651072,0 344,0 L680,0 C722.359566,0 757,34.3631232 757,77 L757,947 C757,989.634752 722.348928,1024 680,1024 L344,1024 C301.640434,1024 267,989.636877 267,947 L267,77 L267,77 Z M312,134 L713,134 L713,891 L312,891 L312,134 L312,134 Z M535,979 C559.076668,979 579,959.076668 579,935 C579,909.923332 559.076668,890 535,890 C509.923332,890 490,909.923332 490,935 C490,959.076668 509.923332,979 535,979 L535,979 Z" id="path-1"></path>
    </defs>
    <g id="Symbols" stroke="none" stroke-width="1" fill="none" fill-rule="evenodd">
        <g id="mobile">
            <mask id="mask-2" fill="white">
                <use xlink:href="#path-1"></use>
            </mask>
            <use id="use-as-wallpaper" fill="#000000" xlink:href="#path-1"></use>
            <g id="null-mask" mask="url(#mask-2)"></g>
        </g>
    </g>
</svg>