<?xml version="1.0" encoding="UTF-8"?>
<svg width="30px" height="22px" viewBox="0 0 30 22" version="1.1" xmlns="http://www.w3.org/2000/svg" xmlns:xlink="http://www.w3.org/1999/xlink">
    <!-- Generator: Sketch 51.2 (57519) - http://www.bohemiancoding.com/sketch -->
    <title>67</title>
    <desc>Created with Sketch.</desc>
    <defs></defs>
    <g id="Page-1" stroke="none" stroke-width="1" fill="none" fill-rule="evenodd">
        <g id="Filter" transform="translate(-485.000000, -529.000000)" fill="#FFFFFF" fill-rule="nonzero">
            <path d="M511.629,535.156425 C511.185,535.156425 510.613,535.35857 509.830333,535.792882 C509.711333,535.85893 509.599667,535.895289 509.516,535.895289 C509.455,535.895289 509.406333,535.878944 509.351333,535.797552 C509.299667,535.720497 509.212333,535.533696 509.212333,535.14942 L509.212333,530.174511 C509.212333,529.527045 508.685667,529 508.038667,529 L504.515333,529 C503.738667,529 503.156667,529.261855 502.876667,529.736529 C502.631,530.153829 502.654,530.671201 502.942667,531.194577 C503.397,532.014834 503.446333,532.367754 503.446333,532.481169 C503.446333,533.733736 501.868333,534.79183 500,534.79183 C498.132,534.79183 496.553667,533.733736 496.553667,532.481169 C496.553667,532.367754 496.602667,532.015501 497.056667,531.194244 C497.346,530.671535 497.369333,530.154163 497.123333,529.736863 C496.843667,529.261855 496.261667,529 495.484333,529 L491.961333,529 C491.314333,529 490.787667,529.527045 490.787667,530.174511 L490.787667,535.149086 C490.787667,535.426286 490.723667,535.894956 490.483667,535.894956 C490.400667,535.894956 490.289,535.858596 490.170333,535.792882 C489.386667,535.358237 488.815,535.156091 488.370667,535.156091 C486.512333,535.156425 485,537.179879 485,539.667 C485,542.153788 486.512333,544.177242 488.370667,544.177242 C488.813333,544.177242 489.385333,543.975764 490.170333,543.542119 C490.289667,543.475404 490.401,543.439045 490.484667,543.439045 C490.723667,543.439045 490.787667,543.908382 490.787667,544.185915 L490.787667,549.158822 C490.787667,549.805954 491.314333,550.333333 491.961333,550.333333 L495.484333,550.333333 C496.261333,550.333333 496.843333,550.071478 497.123333,549.596137 C497.369333,549.178837 497.345667,548.661465 497.056667,548.138756 C496.602667,547.317165 496.553667,546.965246 496.553667,546.851831 C496.553667,545.599264 498.132,544.541504 500,544.541504 C501.868,544.541504 503.446333,545.599264 503.446333,546.851831 C503.446333,546.965579 503.397333,547.317833 502.942667,548.139423 C502.654,548.661465 502.630667,549.179504 502.876667,549.596804 C503.156667,550.071478 503.738667,550.333333 504.515333,550.333333 L508.038333,550.333333 C508.685333,550.333333 509.212,549.805954 509.212,549.158822 L509.212,544.186248 C509.212,543.908716 509.275667,543.439378 509.515,543.439378 C509.598667,543.439378 509.71,543.475404 509.83,543.542452 C510.614333,543.976097 511.185667,544.177576 511.628667,544.177576 C513.487667,544.177242 515,542.153788 515,539.667 C515,537.179879 513.487667,535.156425 511.629,535.156425 Z M511.629,543.115479 C511.516,543.115479 511.164667,543.066444 510.344,542.613118 C510.062,542.456672 509.783333,542.377282 509.515667,542.377282 C508.886333,542.377282 508.151,542.851289 508.151,544.186248 L508.151,549.159156 C508.151,549.2202 508.099667,549.27157 508.038667,549.27157 L504.515333,549.27157 C504.102,549.27157 503.853667,549.164493 503.790333,549.057416 C503.744333,548.979694 503.774333,548.827918 503.871,548.653793 C504.305333,547.869562 504.507333,547.297151 504.507333,546.852165 C504.507333,544.992828 502.485333,543.480074 500,543.480074 C497.514667,543.480074 495.492667,544.992828 495.492667,546.852165 C495.492667,547.296484 495.694667,547.869229 496.128333,548.653126 C496.225333,548.828252 496.255333,548.979694 496.209333,549.057416 C496.146667,549.16416 495.898,549.27157 495.484667,549.27157 L491.961333,549.27157 C491.900333,549.27157 491.849,549.2202 491.849,549.159156 L491.849,544.186248 C491.849,542.851289 491.114,542.377282 490.485,542.377282 C490.217,542.377282 489.938,542.456672 489.657,542.612451 C488.835333,543.06611 488.484,543.115479 488.371,543.115479 C487.119333,543.115479 486.061333,541.536677 486.061333,539.667 C486.061333,537.797657 487.119,536.218188 488.371,536.218188 C488.484333,536.218188 488.836333,536.267223 489.657,536.722217 C489.938333,536.877662 490.216667,536.957052 490.484333,536.956719 C491.114,536.956719 491.849333,536.483379 491.849333,535.149086 L491.849333,530.174511 C491.849333,530.113801 491.901,530.062097 491.961667,530.062097 L495.484667,530.062097 C495.898333,530.062097 496.146667,530.169507 496.209333,530.276251 C496.255333,530.353973 496.225,530.505415 496.128333,530.680208 C495.694667,531.465105 495.492667,532.037183 495.492667,532.481502 C495.492667,534.341172 497.514667,535.85426 500,535.85426 C502.485333,535.85426 504.507333,534.341172 504.507333,532.481502 C504.507333,532.036516 504.305333,531.464104 503.871333,530.680541 C503.774333,530.505749 503.744333,530.354307 503.790333,530.276251 C503.853333,530.169507 504.102,530.062097 504.515333,530.062097 L508.038333,530.062097 C508.099333,530.062097 508.150667,530.113801 508.150667,530.174511 L508.150667,535.149086 C508.150667,535.657118 508.258667,536.074752 508.471,536.390312 C508.870333,536.984072 509.610667,537.127508 510.343667,536.722217 C511.164,536.267557 511.515667,536.218522 511.628667,536.218522 C512.881,536.218522 513.938667,537.79799 513.938667,539.667334 C513.938667,541.536344 512.881333,543.115479 511.629,543.115479 Z" id="67"></path>
        </g>
    </g>
</svg>