<?xml version="1.0" encoding="UTF-8"?>
<svg width="30px" height="23px" viewBox="0 0 30 23" version="1.1" xmlns="http://www.w3.org/2000/svg" xmlns:xlink="http://www.w3.org/1999/xlink">
    <!-- Generator: Sketch 51.2 (57519) - http://www.bohemiancoding.com/sketch -->
    <title>166</title>
    <desc>Created with Sketch.</desc>
    <defs></defs>
    <g id="Page-1" stroke="none" stroke-width="1" fill="none" fill-rule="evenodd">
        <g id="Filter" transform="translate(-789.000000, -527.000000)" fill="#FFFFFF" fill-rule="nonzero">
            <path d="M809.558667,529.164698 C809.026333,529.164698 808.494667,529.205617 807.972,529.283096 C805.968667,527.857293 803.413333,527 800.633,527 C794.218333,527 789,531.555458 789,537.154694 C789,539.293901 789.753,541.340202 791.177667,543.071222 C791.178,543.071893 791.178,543.071893 791.178,543.072564 C791.544667,543.517981 791.689667,543.65885 791.714667,543.682664 C792.001667,543.951993 792.173,544.443696 792.129,544.687535 L791.981333,545.50089 C791.981333,545.50156 791.981333,545.50156 791.981333,545.502231 L791.382667,548.804284 C791.259667,549.482807 791.584333,549.777627 791.729667,549.873553 C791.807333,549.924199 791.957667,550 792.167333,550 C792.35,550 792.577667,549.942646 792.841667,549.762869 L795.583,547.900035 L796.735,547.117873 C796.953,546.968953 797.403333,546.882084 797.660333,546.939773 C797.728333,546.954866 799.336667,547.307711 800.632667,547.307711 C803.13,547.307711 805.443667,546.615437 807.341,545.441858 C808.063667,545.594132 808.807333,545.674964 809.558,545.674964 C810.609333,545.674964 811.911,545.388865 811.965667,545.377125 C812.142,545.337212 812.477333,545.402281 812.627667,545.504914 L813.552,546.133126 L815.752333,547.628022 C815.984333,547.785998 816.187333,547.836308 816.351667,547.836308 C816.547333,547.836308 816.688333,547.765203 816.761333,547.71724 C816.895333,547.628693 817.195667,547.358357 817.085667,546.751611 L816.605,544.100913 C816.605,544.100913 816.605,544.100913 816.605,544.100242 L816.486667,543.448217 C816.460333,543.300303 816.574667,542.937061 816.788,542.736489 C816.817667,542.708986 816.936667,542.590588 817.227333,542.237743 C818.387,540.828375 819,539.163094 819,537.419999 C819,532.867559 814.764667,529.164698 809.558667,529.164698 Z M800.633,546.239785 C799.453,546.239785 797.903667,545.900356 797.888333,545.897337 C797.35,545.778604 796.598,545.922492 796.141333,546.233412 L794.989333,547.015574 L792.475667,548.723787 L793.025,545.693411 L793.025333,545.692741 L793.172667,544.879386 C793.286333,544.251174 792.970667,543.40126 792.442333,542.905533 C792.441333,542.904526 792.318333,542.783781 791.995333,542.391358 C791.995,542.391358 791.995,542.390687 791.995,542.390687 C790.73,540.85286 790.061,539.042348 790.061,537.15503 C790.061,532.144763 794.803667,528.067927 800.633,528.067927 C806.462333,528.067927 811.204667,532.144428 811.204667,537.15503 C811.204667,542.163954 806.462333,546.239785 800.633,546.239785 Z M816.410333,541.555867 C816.158333,541.862426 816.063667,541.955668 816.064,541.955668 C815.612667,542.378948 815.346,543.10275 815.442667,543.639061 L815.561,544.291758 L815.561,544.292429 L815.957667,546.478592 L814.146667,545.24833 L813.222667,544.620118 C812.835,544.35582 812.197,544.232727 811.738333,544.334354 C811.726,544.336702 810.496,544.606702 809.558667,544.606702 C809.231667,544.606702 808.906667,544.587584 808.584,544.555721 C810.847667,542.702613 812.266,540.071033 812.266,537.15503 C812.266,534.489573 811.082,532.062925 809.151333,530.249395 C809.287,530.243693 809.422333,530.232289 809.558667,530.232289 C814.179333,530.232289 817.939,533.456864 817.939,537.420334 C817.938667,538.91087 817.41,540.341368 816.410333,541.555867 Z" id="166"></path>
        </g>
    </g>
</svg>