<?xml version="1.0" encoding="UTF-8"?>
<svg width="30px" height="28px" viewBox="0 0 30 28" version="1.1" xmlns="http://www.w3.org/2000/svg" xmlns:xlink="http://www.w3.org/1999/xlink">
    <!-- Generator: Sketch 51.2 (57519) - http://www.bohemiancoding.com/sketch -->
    <title>135</title>
    <desc>Created with Sketch.</desc>
    <defs></defs>
    <g id="Page-1" stroke="none" stroke-width="1" fill="none" fill-rule="evenodd">
        <g id="Filter" transform="translate(-941.000000, -520.000000)" fill="#FFFFFF" fill-rule="nonzero">
            <path d="M970.033667,530.11826 L957.848667,520.603086 C957.351,520.214527 956.694,520 956,520 C955.305333,520 954.649333,520.214527 954.151333,520.603086 L941.966333,530.11826 C941.415667,530.548319 941,531.401408 941,532.101885 L941,533.393065 C941,534.221054 941.670667,534.894422 942.495333,534.894422 L944.585333,534.894422 C944.824667,534.894422 945.019333,535.089872 945.019333,535.329835 L945.019333,544.238911 C945.019333,546.312563 946.7,548 948.765333,548 L963.234333,548 C965.3,548 966.980667,546.312563 966.980667,544.238911 L966.980667,535.329835 C966.980667,535.089872 967.175333,534.894422 967.414667,534.894422 L969.504667,534.894422 C970.329333,534.894422 971,534.220719 971,533.393065 L971,532.101885 C971,531.401408 970.584333,530.548319 970.033667,530.11826 Z M959.167,546.934392 L952.833,546.934392 L952.833,540.687998 C952.833,538.934296 954.253667,537.508241 956,537.508241 C957.746333,537.508241 959.167,538.934296 959.167,540.687998 L959.167,546.934392 Z M969.938667,533.3934 C969.938667,533.633697 969.744,533.829483 969.504333,533.829483 L967.414333,533.829483 C966.589667,533.829483 965.919,534.502516 965.919,535.33017 L965.919,544.239246 C965.919,545.725207 964.715,546.934726 963.234,546.934726 L960.227667,546.934726 L960.227667,540.687998 C960.227667,538.34694 958.331,536.442298 955.999333,536.442298 C953.667667,536.442298 951.771,538.346605 951.771,540.687998 L951.771,546.934392 L948.764667,546.934392 C947.284667,546.934392 946.08,545.725207 946.08,544.238911 L946.08,535.329835 C946.08,534.501847 945.409333,533.829148 944.584667,533.829148 L942.494667,533.829148 C942.255333,533.829148 942.060667,533.633362 942.060667,533.393065 L942.060667,532.101885 C942.060667,531.731064 942.325667,531.186881 942.617333,530.959301 L954.802667,521.443792 C955.110333,521.203495 955.546667,521.065608 955.999667,521.065608 C956.452667,521.065608 956.889,521.203495 957.197,521.443792 L969.382333,530.959301 C969.673,531.186881 969.938667,531.731064 969.938667,532.101885 L969.938667,533.3934 Z" id="135"></path>
        </g>
    </g>
</svg>