<?xml version="1.0" encoding="UTF-8"?>
<svg width="22px" height="30px" viewBox="0 0 22 30" version="1.1" xmlns="http://www.w3.org/2000/svg" xmlns:xlink="http://www.w3.org/1999/xlink">
    <!-- Generator: Sketch 51.2 (57519) - http://www.bohemiancoding.com/sketch -->
    <title>91</title>
    <desc>Created with Sketch.</desc>
    <defs></defs>
    <g id="Page-1" stroke="none" stroke-width="1" fill="none" fill-rule="evenodd">
        <g id="Filter" transform="translate(-1095.000000, -519.000000)" fill="#FFFFFF" fill-rule="nonzero">
            <g id="91" transform="translate(1095.000000, 519.000000)">
                <path d="M20.9525275,28.95 L1.33054945,28.95 C1.04043956,28.95 0.805714286,29.1847253 0.805714286,29.4748352 C0.805714286,29.7649451 1.04043956,30 1.33054945,30 L20.9525275,30 C21.2426374,30 21.4773626,29.7649451 21.4773626,29.4748352 C21.4773626,29.1847253 21.2426374,28.95 20.9525275,28.95 Z" id="Shape"></path>
                <path d="M1.55175824,25.7406593 L5.0043956,24.1345055 C5.72241758,23.8008791 6.64120879,23.0307692 7.09582418,22.3816484 L18.8053846,5.65813187 C19.8764835,4.12846154 19.5036264,2.01230769 17.973956,0.940879121 C16.4442857,-0.130549451 14.3287912,0.242967033 13.257033,1.77263736 L13.6869231,2.07362637 L13.257033,1.77296703 L1.54714286,18.4964835 C1.09252747,19.1449451 0.683076923,20.2717582 0.614505495,21.060989 L0.285824176,24.8545055 C0.255164835,25.2128571 0.383406593,25.5204396 0.637912088,25.6984615 C0.776373626,25.7953846 0.937912088,25.8441758 1.10901099,25.8441758 C1.25274725,25.8445055 1.55175824,25.7406593 1.55175824,25.7406593 Z M14.1158242,2.37494505 C14.8552747,1.31934066 16.3150549,1.06087912 17.3716484,1.80065934 C18.4269231,2.54010989 18.6843956,4.00087912 17.9452747,5.05648352 L15.7602198,8.17681319 L11.9310989,5.49527473 L14.1158242,2.37494505 Z M11.3294505,6.35472527 L15.1585714,9.03593407 L7.42615385,20.0792308 L3.5967033,17.3983516 L11.3294505,6.35472527 Z M1.65989011,21.151978 C1.71197802,20.5513187 2.06076923,19.5916484 2.40659341,19.0984615 L2.99472527,18.2581319 L6.82450549,20.939011 L6.23571429,21.78 C5.89021978,22.2731868 5.10791209,22.9289011 4.56131868,23.1830769 L1.35461538,24.6748352 L1.65989011,21.151978 Z" id="Shape"></path>
            </g>
        </g>
    </g>
</svg>