<?xml version="1.0" encoding="UTF-8"?>
<svg width="29px" height="30px" viewBox="0 0 29 30" version="1.1" xmlns="http://www.w3.org/2000/svg" xmlns:xlink="http://www.w3.org/1999/xlink">
    <!-- Generator: Sketch 51.2 (57519) - http://www.bohemiancoding.com/sketch -->
    <title>80</title>
    <desc>Created with Sketch.</desc>
    <defs></defs>
    <g id="Page-1" stroke="none" stroke-width="1" fill="none" fill-rule="evenodd">
        <g id="Filter" transform="translate(-1246.000000, -518.000000)" fill="#FFFFFF" fill-rule="nonzero">
            <path d="M1260.50014,518 C1260.20635,518 1259.96805,518.238 1259.96805,518.530667 L1259.96805,522.032667 C1249.62259,522.299333 1246.78497,530.256333 1246.04431,533.712667 C1245.92432,534.27 1246.04999,534.812667 1246.39726,535.24 C1246.7589,535.686333 1247.31606,535.942333 1247.92637,535.942333 L1259.96805,535.942333 L1259.96805,544.656 C1259.96805,545.914333 1258.94129,546.939 1257.6789,546.939 C1256.41651,546.939 1255.39008,545.914667 1255.39008,544.656 L1255.39008,543.45 C1255.39008,543.157 1255.15144,542.919333 1254.85765,542.919333 C1254.56386,542.919333 1254.32522,543.157 1254.32522,543.45 L1254.32522,544.656 C1254.32556,546.499667 1255.83026,548 1257.67923,548 C1259.5282,548 1261.03224,546.499667 1261.03224,544.656 L1261.03224,535.942333 L1273.07392,535.942333 C1273.68422,535.942333 1274.24138,535.686 1274.60302,535.24 C1274.95029,534.812 1275.07563,534.27 1274.95564,533.712667 C1274.21465,530.256333 1271.37702,522.299667 1261.03224,522.032667 L1261.03224,518.530667 C1261.03224,518.238 1260.79393,518 1260.50014,518 Z M1273.91584,533.935333 C1273.98102,534.239333 1273.87574,534.450333 1273.77614,534.573 C1273.61704,534.768667 1273.36135,534.881 1273.07392,534.881 L1247.92637,534.881 C1247.63893,534.881 1247.38291,534.768667 1247.22381,534.573 C1247.12455,534.450333 1247.01893,534.239333 1247.08444,533.934667 C1247.78398,530.671333 1250.49159,523.080667 1260.50014,523.080667 C1270.50802,523.080667 1273.21596,530.671333 1273.91584,533.935333 Z" id="80"></path>
        </g>
    </g>
</svg>