<?xml version="1.0" encoding="UTF-8"?>
<svg width="30px" height="26px" viewBox="0 0 30 26" version="1.1" xmlns="http://www.w3.org/2000/svg" xmlns:xlink="http://www.w3.org/1999/xlink">
    <!-- Generator: Sketch 51.2 (57519) - http://www.bohemiancoding.com/sketch -->
    <title>149</title>
    <desc>Created with Sketch.</desc>
    <defs></defs>
    <g id="Page-1" stroke="none" stroke-width="1" fill="none" fill-rule="evenodd">
        <g id="Filter" transform="translate(-333.000000, -672.000000)" fill="#FFFFFF" fill-rule="nonzero">
            <g id="149" transform="translate(333.000000, 672.000000)">
                <path d="M26.254,0.0786666667 L3.74566667,0.0786666667 C1.68066667,0.0786666667 0,1.759 0,3.82433333 L0,21.5086667 C0,21.5143333 0.001,21.519 0.001,21.5243333 C0.00133333333,21.53 0.00166666667,21.535 0.002,21.5406667 C0.0193333333,23.5913333 1.691,25.255 3.74566667,25.255 L26.2536667,25.255 C28.3123333,25.255 29.9866667,23.586 29.9983333,21.53 C29.9986667,21.527 29.999,21.5236667 29.999,21.521 C29.999,21.5166667 29.9996667,21.5133333 29.9996667,21.509 L29.9996667,3.82433333 C30,1.759 28.3196667,0.0786666667 26.254,0.0786666667 Z M26.254,24.1933333 L3.74566667,24.1933333 C2.33166667,24.1933333 1.17166667,23.094 1.071,21.7043333 L7.59166667,14.5916667 C8.06766667,14.0713333 8.70033333,13.7856667 9.37333333,13.7856667 C10.0463333,13.7856667 10.6786667,14.0713333 11.155,14.5916667 L17.825,21.8676667 C17.9293333,21.981 18.0723333,22.0396667 18.216,22.0396667 C18.344,22.0396667 18.4726667,21.993 18.5743333,21.9 C18.7903333,21.702 18.8046667,21.3663333 18.607,21.15 L17.016,19.4143333 L20.071,16.1736667 C20.5566667,15.659 21.203,15.3753333 21.891,15.3753333 C22.579,15.3753333 23.225,15.659 23.711,16.1736667 L28.9293333,21.7083333 C28.826,23.0956667 27.667,24.1933333 26.254,24.1933333 Z M28.9386667,20.1726667 L24.482,15.4463333 C23.7943333,14.7163333 22.8736667,14.3143333 21.8903333,14.3143333 C20.907,14.3143333 19.9863333,14.716 19.2986667,15.4463333 L16.2963333,18.6303333 L11.937,13.8743333 C11.2573333,13.133 10.3466667,12.725 9.37333333,12.725 C8.39933333,12.725 7.489,13.1333333 6.80966667,13.8743333 L1.06133333,20.1453333 L1.06133333,3.82433333 C1.06133333,2.344 2.26533333,1.13933333 3.746,1.13933333 L26.254,1.13933333 C27.7346667,1.13933333 28.939,2.344 28.939,3.82433333 L28.939,20.1726667 L28.9386667,20.1726667 Z" id="Shape"></path>
                <path d="M21.431,3.61533333 C19.3653333,3.61533333 17.685,5.29566667 17.685,7.36133333 C17.685,9.42666667 19.3653333,11.1073333 21.431,11.1073333 C23.4963333,11.1073333 25.177,9.42666667 25.177,7.36133333 C25.177,5.29566667 23.4963333,3.61533333 21.431,3.61533333 Z M21.431,10.046 C19.9503333,10.046 18.746,8.842 18.746,7.36133333 C18.746,5.881 19.95,4.67633333 21.431,4.67633333 C22.9113333,4.67633333 24.1156667,5.881 24.1156667,7.36133333 C24.1156667,8.842 22.9113333,10.046 21.431,10.046 Z" id="Shape"></path>
            </g>
        </g>
    </g>
</svg>