<?xml version="1.0" encoding="UTF-8"?>
<svg width="30px" height="29px" viewBox="0 0 30 29" version="1.1" xmlns="http://www.w3.org/2000/svg" xmlns:xlink="http://www.w3.org/1999/xlink">
    <!-- Generator: Sketch 51.2 (57519) - http://www.bohemiancoding.com/sketch -->
    <title>93</title>
    <desc>Created with Sketch.</desc>
    <defs></defs>
    <g id="Page-1" stroke="none" stroke-width="1" fill="none" fill-rule="evenodd">
        <g id="Filter" transform="translate(-486.000000, -668.000000)" fill="#FFFFFF" fill-rule="nonzero">
            <g id="93" transform="translate(486.000000, 668.000000)">
                <path d="M15,3.30966667 C13.6176667,3.30966667 12.493,4.43333333 12.493,5.81533333 C12.493,7.19733333 13.6173333,8.322 15,8.322 C16.3826667,8.322 17.507,7.19733333 17.507,5.81533333 C17.507,4.43333333 16.3823333,3.30966667 15,3.30966667 Z M15,7.354 C14.1513333,7.354 13.4606667,6.66366667 13.4606667,5.81533333 C13.4606667,4.96766667 14.1513333,4.27766667 15,4.27766667 C15.8486667,4.27766667 16.539,4.96766667 16.539,5.81533333 C16.539,6.66333333 15.8486667,7.354 15,7.354 Z" id="Shape"></path>
                <path d="M29.1906667,7.09033333 L16.309,0.536333333 C15.5963333,0.174333333 14.404,0.174333333 13.691,0.536333333 L0.809666667,7.09033333 C0.347666667,7.325 -5.92118946e-16,7.89233333 -5.92118946e-16,8.40966667 L-5.92118946e-16,9.68066667 C-5.92118946e-16,10.3683333 0.56,10.9286667 1.248,10.9286667 L3.38933333,10.9286667 L3.38933333,12.8723333 C3.38933333,13.317 3.75133333,13.6786667 4.196,13.6786667 L4.329,13.6786667 L4.329,20.6103333 L4.196,20.6103333 C3.75133333,20.6103333 3.38933333,20.972 3.38933333,21.417 L3.38933333,23.362 L2.09666667,23.362 C0.940666667,23.362 -8.8817842e-16,24.3023333 -8.8817842e-16,25.4586667 L-8.8817842e-16,26.3046667 C-8.8817842e-16,27.4606667 0.940666667,28.4013333 2.09666667,28.4013333 L27.9033333,28.4013333 C29.0593333,28.4013333 30,27.4606667 30,26.3046667 L30,25.4586667 C30,24.3023333 29.0593333,23.362 27.9033333,23.362 L26.6106667,23.362 L26.6106667,21.417 C26.6106667,20.972 26.2486667,20.6103333 25.804,20.6103333 L25.671,20.6103333 L25.671,13.6786667 L25.804,13.6786667 C26.2486667,13.6786667 26.6106667,13.317 26.6106667,12.8723333 L26.6106667,10.9286667 L28.7523333,10.9286667 C29.44,10.9286667 30,10.3683333 30,9.68066667 L30,8.40966667 C30,7.89233333 29.6523333,7.325 29.1906667,7.09033333 Z M27.9033333,24.3293333 C28.5256667,24.3293333 29.0323333,24.836 29.0323333,25.4586667 L29.0323333,26.3046667 C29.0323333,26.927 28.5256667,27.434 27.9033333,27.434 L2.09666667,27.434 C1.47433333,27.434 0.967666667,26.927 0.967666667,26.3046667 L0.967666667,25.4586667 C0.967666667,24.836 1.47433333,24.3293333 2.09666667,24.3293333 L27.9033333,24.3293333 Z M4.49033333,12.711 L4.35766667,12.711 L4.35766667,10.9286667 L8.41,10.9286667 L8.41,12.658 L8.27733333,12.658 C7.83266667,12.658 7.47066667,13.0203333 7.47066667,13.4646667 L7.47066667,20.7193333 C7.47066667,21.1643333 7.83266667,21.526 8.27733333,21.526 L8.41,21.526 L8.41,23.362 L4.35733333,23.362 L4.35733333,21.578 L4.49,21.578 C4.93433333,21.578 5.29666667,21.2163333 5.29666667,20.7716667 L5.29666667,13.5176667 C5.297,13.0726667 4.93466667,12.711 4.49033333,12.711 Z M12.812,13.626 L12.9446667,13.626 L12.9446667,20.558 L12.812,20.558 C12.3676667,20.558 12.0056667,20.9196667 12.0056667,21.3646667 L12.0056667,23.362 L9.37733333,23.362 L9.37733333,21.3646667 C9.37733333,20.9196667 9.016,20.558 8.57133333,20.558 L8.43833333,20.558 L8.43833333,13.626 L8.57133333,13.626 C9.016,13.626 9.37733333,13.2643333 9.37733333,12.8196667 L9.37733333,10.9286667 L12.0056667,10.9286667 L12.0056667,12.8196667 C12.0056667,13.2643333 12.3676667,13.626 12.812,13.626 Z M13.106,12.6583333 L12.973,12.6583333 L12.973,10.929 L17.0256667,10.929 L17.0256667,12.7113333 L16.8936667,12.7113333 C16.4486667,12.7113333 16.0873333,13.073 16.0873333,13.518 L16.0873333,20.7723333 C16.0873333,21.217 16.4486667,21.5786667 16.8936667,21.5786667 L17.0256667,21.5786667 L17.0256667,23.3626667 L12.973,23.3626667 L12.973,21.5266667 L13.106,21.5266667 C13.551,21.5266667 13.9123333,21.165 13.9123333,20.72 L13.9123333,13.465 C13.9123333,13.0206667 13.551,12.6583333 13.106,12.6583333 Z M21.4286667,13.6786667 L21.5613333,13.6786667 L21.5613333,20.6103333 L21.4286667,20.6103333 C20.984,20.6103333 20.6226667,20.972 20.6226667,21.417 L20.6226667,23.362 L17.9933333,23.362 L17.9933333,21.417 C17.9933333,20.972 17.6313333,20.6103333 17.1866667,20.6103333 L17.055,20.6103333 L17.055,13.6786667 L17.1866667,13.6786667 C17.6313333,13.6786667 17.9933333,13.317 17.9933333,12.8723333 L17.9933333,10.9286667 L20.6226667,10.9286667 L20.6226667,12.8723333 C20.6226667,13.317 20.984,13.6786667 21.4286667,13.6786667 Z M21.7226667,12.711 L21.5903333,12.711 L21.5903333,10.9286667 L25.6426667,10.9286667 L25.6426667,12.711 L25.51,12.711 C25.0653333,12.711 24.7033333,13.0726667 24.7033333,13.5176667 L24.7033333,20.772 C24.7033333,21.2166667 25.0653333,21.5783333 25.51,21.5783333 L25.6426667,21.5783333 L25.6426667,23.3623333 L21.5903333,23.3623333 L21.5903333,21.5783333 L21.7226667,21.5783333 C22.1676667,21.5783333 22.5293333,21.2166667 22.5293333,20.772 L22.5293333,13.5176667 C22.5293333,13.0726667 22.1676667,12.711 21.7226667,12.711 Z M29.0323333,9.68066667 C29.0323333,9.83466667 28.9066667,9.961 28.7523333,9.961 L1.248,9.961 C1.09333333,9.961 0.967666667,9.83466667 0.967666667,9.68066667 L0.967666667,8.40966667 C0.967666667,8.257 1.112,8.022 1.248,7.95266667 L14.13,1.39933333 C14.35,1.28766667 14.6666667,1.22366667 15,1.22366667 C15.3333333,1.22366667 15.6503333,1.28766667 15.8696667,1.39933333 L28.752,7.95266667 C28.888,8.022 29.032,8.25666667 29.032,8.40966667 L29.032,9.68066667 L29.0323333,9.68066667 Z" id="Shape"></path>
            </g>
        </g>
    </g>
</svg>