<?xml version="1.0" encoding="UTF-8"?>
<svg width="24px" height="30px" viewBox="0 0 24 30" version="1.1" xmlns="http://www.w3.org/2000/svg" xmlns:xlink="http://www.w3.org/1999/xlink">
    <!-- Generator: Sketch 51.2 (57519) - http://www.bohemiancoding.com/sketch -->
    <title>81</title>
    <desc>Created with Sketch.</desc>
    <defs></defs>
    <g id="Page-1" stroke="none" stroke-width="1" fill="none" fill-rule="evenodd">
        <g id="Filter" transform="translate(-637.000000, -668.000000)" fill="#FFFFFF" fill-rule="nonzero">
            <g id="81" transform="translate(637.000000, 668.000000)">
                <path d="M11.6666667,30 C17.9636667,30 23.087,24.8766667 23.087,18.5796667 C23.087,12.4463333 14.159,1.51033333 13.778,1.04766667 C13.223,0.371666667 12.473,0 11.6666667,0 C10.8603333,0 10.1103333,0.371666667 9.55466667,1.048 C9.17466667,1.51066667 0.246333333,12.4463333 0.246333333,18.58 C0.246333333,24.8766667 5.36966667,30 11.6666667,30 Z M10.375,1.72133333 C10.7246667,1.29566667 11.184,1.061 11.6666667,1.061 C12.1493333,1.061 12.6086667,1.29566667 12.9583333,1.72133333 C13.049,1.832 22.0256667,12.825 22.0256667,18.5796667 C22.0256667,24.2913333 17.3783333,28.9386667 11.6666667,28.9386667 C5.955,28.9386667 1.30766667,24.2913333 1.30766667,18.5796667 C1.30766667,12.825 10.2836667,1.832 10.375,1.72133333 Z" id="Shape"></path>
                <path d="M12.196,24.9516667 C15.3003333,24.696 17.7836667,22.2136667 18.039,19.1096667 C18.0626667,18.8176667 17.8236667,18.5796667 17.5306667,18.5796667 C17.2376667,18.5796667 17.0023333,18.8176667 16.9733333,19.109 C16.724,21.628 14.7153333,23.637 12.196,23.886 C11.9046667,23.9153333 11.6666667,24.15 11.6666667,24.4433333 C11.6666667,24.7366667 11.904,24.976 12.196,24.9516667 Z" id="Shape"></path>
            </g>
        </g>
    </g>
</svg>