<?xml version="1.0" encoding="UTF-8"?>
<svg width="30px" height="30px" viewBox="0 0 30 30" version="1.1" xmlns="http://www.w3.org/2000/svg" xmlns:xlink="http://www.w3.org/1999/xlink">
    <!-- Generator: Sketch 51.2 (57519) - http://www.bohemiancoding.com/sketch -->
    <title>15</title>
    <desc>Created with Sketch.</desc>
    <defs></defs>
    <g id="Page-1" stroke="none" stroke-width="1" fill="none" fill-rule="evenodd">
        <g id="Filter" transform="translate(-789.000000, -667.000000)" fill="#FFFFFF" fill-rule="nonzero">
            <path d="M795.326273,687.863667 C795.309604,687.881333 795.256594,687.904333 795.233257,687.905667 L791.369254,687.204333 C790.994523,687.135333 790.507105,687.287 790.237058,687.558 L789.34157,688.452333 C789.067523,688.725667 788.950169,689.074667 789.019514,689.410333 C789.089193,689.745667 789.335236,690.019333 789.694965,690.162 L793.949368,691.842333 C794.012379,691.867667 794.134067,691.988667 794.158738,692.052333 L795.840362,696.306333 C796.009725,696.734333 796.371121,697 796.782525,697 C797.057573,697 797.33062,696.879667 797.550658,696.659 L798.44448,695.764667 C798.718861,695.491 798.867886,695.014667 798.798541,694.632 L798.098086,690.776 C798.09742,690.749 798.119757,690.693 798.132759,690.679333 C798.356798,690.517667 803.649714,686.7 805.580715,684.769333 L806.735582,683.614333 L810.981984,694.356667 C811.151347,694.785667 811.512743,695.051667 811.924147,695.051667 C812.199862,695.051667 812.472576,694.930667 812.692947,694.711 L814.098857,693.304667 C814.373571,693.030333 814.522597,692.554333 814.453252,692.171667 L812.057504,678.983 C812.051503,678.935667 812.085509,678.825333 812.117514,678.790333 L815.982517,674.925333 C818.811673,672.096667 819.779841,669.112667 818.336591,667.669333 C817.898182,667.231333 817.294077,667 816.590289,667 C815.032352,667 812.972329,668.129667 811.079334,670.022333 L807.214332,673.886667 C807.18766,673.910667 807.096311,673.947333 807.022298,673.947333 L807.021965,673.947333 L793.82868,671.551333 C793.454282,671.483 792.967531,671.635 792.697151,671.905667 L791.289907,673.312667 C791.01586,673.586667 790.89884,673.935667 790.968518,674.271333 C791.037864,674.606667 791.284573,674.88 791.644302,675.022667 L802.388496,679.268333 L801.233629,680.423333 C799.302295,682.353667 795.483634,687.645333 795.326273,687.863667 Z M803.156962,680 C803.430676,679.726667 803.548364,679.377 803.478351,679.042 C803.409006,678.706667 803.162963,678.433 802.802901,678.290333 L792.057707,674.044333 L793.445947,672.656667 C793.472952,672.633 793.564635,672.595667 793.639648,672.595667 L806.831932,674.991667 C807.20633,675.06 807.693748,674.908333 807.964128,674.638 L811.829798,670.772333 C813.503087,669.1 815.32707,668.060333 816.590289,668.060333 C817.012695,668.060333 817.34742,668.181667 817.585794,668.419667 C818.539293,669.373333 817.505781,671.901333 815.23172,674.174333 L811.367718,678.039 C811.09267,678.313 810.943644,678.79 811.013323,679.171333 L813.409404,692.359667 C813.415406,692.407667 813.381066,692.518333 813.349394,692.553 L811.960154,693.943333 L807.713418,683.200667 C807.543722,682.771667 807.18266,682.505333 806.770922,682.505333 C806.495541,682.505333 806.222493,682.626667 806.002789,682.846333 L804.829919,684.019 C802.959595,685.889 797.566328,689.779 797.511318,689.818667 C797.170926,690.064667 796.977559,690.544 797.052572,690.957667 L797.753693,694.82 C797.760361,694.867333 797.725689,694.978667 797.694016,695.013333 L796.817865,695.891 L795.146242,691.661667 C795.013886,691.327 794.674827,690.988 794.339436,690.855333 L790.110036,689.184333 L790.986188,688.308667 C791.012859,688.285333 791.104209,688.248 791.178888,688.248 C791.178888,688.248 791.178888,688.248 791.179222,688.248 L795.043891,688.949333 C795.454295,689.021333 795.940379,688.827 796.183421,688.489667 C796.222095,688.436 800.113435,683.043333 801.984093,681.173333 L803.156962,680 Z" id="15"></path>
        </g>
    </g>
</svg>