<?xml version="1.0" encoding="UTF-8"?>
<svg width="30px" height="30px" viewBox="0 0 30 30" version="1.1" xmlns="http://www.w3.org/2000/svg" xmlns:xlink="http://www.w3.org/1999/xlink">
    <!-- Generator: Sketch 51.2 (57519) - http://www.bohemiancoding.com/sketch -->
    <title>55</title>
    <desc>Created with Sketch.</desc>
    <defs></defs>
    <g id="Page-1" stroke="none" stroke-width="1" fill="none" fill-rule="evenodd">
        <g id="Filter" transform="translate(-942.000000, -666.000000)" fill="#FFFFFF" fill-rule="nonzero">
            <g id="55" transform="translate(942.000000, 666.000000)">
                <path d="M27.8223333,3.85833333 C25.4366667,4.44733333 23.2276667,4.471 21.2933333,3.92633333 C19.4433333,3.40633333 17.7966667,2.354 16.4003333,0.799666667 C16.0103333,0.366333333 15.513,0.127666667 15,0.127666667 C14.4863333,0.127666667 13.9896667,0.366333333 13.6003333,0.8 C12.1516667,2.41133333 10.4363333,3.482 8.50166667,3.982 C6.619,4.46933333 4.479,4.42633333 2.178,3.85866667 C1.512,3.69433333 0.864333333,3.853 0.454666667,4.27766667 C0.145333333,4.598 -0.0153333333,5.05 0.00166666667,5.55266667 C0.178333333,10.7023333 1.22166667,15.1826667 3.10166667,18.8683333 C5.435,23.4423333 9.06633333,26.85 13.894,28.9976667 C14.1963333,29.1316667 14.589,29.206 15.0003333,29.206 C15.411,29.206 15.804,29.1316667 16.1056667,28.9976667 C20.9953333,26.824 24.656,23.3573333 26.987,18.6943333 C28.8116667,15.043 29.825,10.622 29.999,5.55266667 C30.0163333,5.05066667 29.8553333,4.59833333 29.546,4.27766667 C29.1346667,3.853 28.487,3.694 27.8223333,3.85833333 Z M26.0376667,18.2193333 C23.82,22.657 20.3336667,25.9563333 15.6743333,28.0276667 C15.3443333,28.1743333 14.654,28.1743333 14.3253333,28.0276667 C9.725,25.9813333 6.267,22.738 4.04666667,18.3856667 C2.23733333,14.8393333 1.23333333,10.509 1.062,5.516 C1.05466667,5.301 1.10833333,5.128 1.21733333,5.015 C1.34533333,4.882 1.527,4.85433333 1.65666667,4.85433333 C1.74066667,4.85433333 1.83066667,4.866 1.92366667,4.889 C4.397,5.499 6.714,5.54066667 8.76733333,5.00933333 C10.9073333,4.456 12.7993333,3.27866667 14.3896667,1.509 C14.7656667,1.09033333 15.2336667,1.09 15.611,1.50933333 C17.1446667,3.21566667 18.9596667,4.37266667 21.0063333,4.94833333 C23.1176667,5.542 25.5113333,5.52166667 28.0773333,4.88866667 C28.1696667,4.866 28.2593333,4.854 28.3436667,4.854 C28.4733333,4.854 28.6546667,4.882 28.783,5.01466667 C28.8923333,5.12766667 28.946,5.30066667 28.9386667,5.51566667 C28.7696667,10.4316667 27.7936667,14.7053333 26.0376667,18.2193333 Z" id="Shape"></path>
                <path d="M21.9723333,8.783 C21.742,8.60233333 21.4083333,8.64266667 21.2276667,8.87333333 L13.7623333,18.4033333 C13.7076667,18.4733333 13.6466667,18.5113333 13.591,18.5113333 C13.5476667,18.51 13.4736667,18.4723333 13.4193333,18.4013333 L10.062,14.0223333 C9.883,13.7893333 9.55033333,13.7456667 9.318,13.9243333 C9.08533333,14.102 9.04133333,14.4353333 9.22,14.6676667 L12.5773333,19.047 C12.8316667,19.3783333 13.1986667,19.57 13.5846667,19.572 C13.587,19.572 13.5886667,19.572 13.591,19.572 C13.9743333,19.572 14.341,19.3846667 14.5976667,19.0573333 L22.063,9.52733333 C22.2436667,9.29733333 22.203,8.96366667 21.9723333,8.783 Z" id="Shape"></path>
            </g>
        </g>
    </g>
</svg>