<?xml version="1.0" encoding="UTF-8"?>
<svg width="25px" height="30px" viewBox="0 0 25 30" version="1.1" xmlns="http://www.w3.org/2000/svg" xmlns:xlink="http://www.w3.org/1999/xlink">
    <!-- Generator: Sketch 51.2 (57519) - http://www.bohemiancoding.com/sketch -->
    <title>83</title>
    <desc>Created with Sketch.</desc>
    <defs></defs>
    <g id="Page-1" stroke="none" stroke-width="1" fill="none" fill-rule="evenodd">
        <g id="Filter" transform="translate(-1094.000000, -660.000000)" fill="#FFFFFF" fill-rule="nonzero">
            <g id="83" transform="translate(1094.000000, 660.000000)">
                <path d="M0.825333333,30 L24.508,30 C24.787,30 25.0133333,29.762 25.0133333,29.4693333 C25.0133333,29.176 24.787,28.9386667 24.508,28.9386667 L0.825333333,28.9386667 C0.546666667,28.9386667 0.320333333,29.176 0.320333333,29.4693333 C0.320333333,29.762 0.546666667,30 0.825333333,30 Z" id="Shape"></path>
                <path d="M4.27533333,11.6666667 C4.379,11.6666667 4.48366667,11.6333333 4.57333333,11.564 L16.1843333,2.621 L15.496,7.46466667 C15.455,7.75466667 15.6456667,8.02433333 15.921,8.06766667 C15.946,8.07166667 15.9713333,8.07366667 15.9966667,8.07366667 C16.2423333,8.07366667 16.4583333,7.88433333 16.4953333,7.62133333 L17.3166667,1.83666667 C17.349,1.612 17.2953333,1.38733333 17.166,1.204 C17.037,1.021 16.848,0.901666667 16.634,0.868333333 L11.127,0.006 C10.8523333,-0.037 10.5943333,0.162666667 10.553,0.452333333 C10.5116667,0.742333333 10.7016667,1.01233333 10.978,1.05533333 L15.5733333,1.77533333 L3.97566667,10.7086667 C3.751,10.882 3.70266667,11.214 3.86766667,11.4503333 C3.96633333,11.5916667 4.12,11.6666667 4.27533333,11.6666667 Z" id="Shape"></path>
                <path d="M19.812,26.6213333 L22.1,26.6213333 C23.0536667,26.6213333 23.8296667,25.806 23.8296667,24.8046667 L23.8296667,10.1303333 C23.8296667,9.12866667 23.0536667,8.31366667 22.1,8.31366667 L19.812,8.31366667 C18.858,8.31366667 18.082,9.12833333 18.082,10.1303333 L18.082,24.8046667 C18.0816667,25.806 18.8576667,26.6213333 19.812,26.6213333 Z M19.092,10.1303333 C19.092,9.71366667 19.4153333,9.37466667 19.8116667,9.37466667 L22.1,9.37466667 C22.4963333,9.37466667 22.8193333,9.71366667 22.8193333,10.1303333 L22.8193333,24.8046667 C22.8193333,25.2206667 22.4963333,25.56 22.1,25.56 L19.812,25.56 C19.4156667,25.56 19.0923333,25.2206667 19.0923333,24.8046667 L19.0923333,10.1303333 L19.092,10.1303333 Z" id="Shape"></path>
                <path d="M13.8106667,13.2893333 L11.523,13.2893333 C10.5696667,13.2893333 9.79366667,14.1043333 9.79366667,15.106 L9.79366667,24.8046667 C9.79366667,25.806 10.5696667,26.6213333 11.523,26.6213333 L13.8106667,26.6213333 C14.764,26.6213333 15.54,25.806 15.54,24.8046667 L15.54,15.106 C15.54,14.1043333 14.764,13.2893333 13.8106667,13.2893333 Z M14.5296667,24.8046667 C14.5296667,25.2206667 14.2073333,25.56 13.8106667,25.56 L11.523,25.56 C11.1263333,25.56 10.804,25.2206667 10.804,24.8046667 L10.804,15.106 C10.804,14.6893333 11.1263333,14.3503333 11.523,14.3503333 L13.8106667,14.3503333 C14.2073333,14.3503333 14.5296667,14.6893333 14.5296667,15.106 L14.5296667,24.8046667 Z" id="Shape"></path>
                <path d="M3.234,26.6213333 L5.52133333,26.6213333 C6.47533333,26.6213333 7.25133333,25.806 7.25133333,24.8046667 L7.25133333,20.0806667 C7.25133333,19.0786667 6.47533333,18.264 5.52133333,18.264 L3.234,18.264 C2.28033333,18.264 1.50433333,19.0786667 1.50433333,20.0806667 L1.50433333,24.8046667 C1.50433333,25.806 2.28033333,26.6213333 3.234,26.6213333 Z M2.514,20.0806667 C2.514,19.664 2.837,19.325 3.234,19.325 L5.52133333,19.325 C5.91833333,19.325 6.241,19.664 6.241,20.0806667 L6.241,24.8046667 C6.241,25.2206667 5.91833333,25.56 5.52133333,25.56 L3.234,25.56 C2.837,25.56 2.514,25.2206667 2.514,24.8046667 L2.514,20.0806667 Z" id="Shape"></path>
            </g>
        </g>
    </g>
</svg>