<?xml version="1.0" encoding="UTF-8"?>
<svg width="30px" height="30px" viewBox="0 0 30 30" version="1.1" xmlns="http://www.w3.org/2000/svg" xmlns:xlink="http://www.w3.org/1999/xlink">
    <!-- Generator: Sketch 51.2 (57519) - http://www.bohemiancoding.com/sketch -->
    <title>138</title>
    <desc>Created with Sketch.</desc>
    <defs></defs>
    <g id="Page-1" stroke="none" stroke-width="1" fill="none" fill-rule="evenodd">
        <g id="Filter" transform="translate(-1245.000000, -655.000000)" fill="#FFFFFF" fill-rule="nonzero">
            <g id="138" transform="translate(1245.000000, 655.000000)">
                <path d="M20.911,5.93166667 C20.067,5.93166667 19.2743333,6.26 18.678,6.85666667 C17.4473333,8.08733333 17.447,10.0903333 18.678,11.3216667 C19.2743333,11.918 20.067,12.2463333 20.91,12.2463333 C21.7536667,12.2463333 22.5463333,11.918 23.1423333,11.3216667 C24.3733333,10.0906667 24.3733333,8.08766667 23.1426667,6.85633333 C22.547,6.26 21.7543333,5.93166667 20.911,5.93166667 Z M22.3923333,10.5713333 C21.9966667,10.9676667 21.47,11.1856667 20.9103333,11.1856667 C20.3506667,11.1856667 19.8243333,10.967 19.4286667,10.5713333 C18.6113333,9.754 18.6113333,8.42466667 19.4286667,7.60733333 C19.8246667,7.211 20.3513333,6.99266667 20.9113333,6.99266667 C21.471,6.99266667 21.9973333,7.21066667 22.3926667,7.60666667 C23.2096667,8.42433333 23.2093333,9.754 22.3923333,10.5713333 Z" id="Shape"></path>
                <path d="M29.5366667,3.22133333 C29.3546667,2.632 29.139,2.14866667 29.1293333,2.12833333 C28.9073333,1.63333333 28.3666667,1.09266667 27.871,0.869666667 C27.8513333,0.861 27.3753333,0.648 26.7896667,0.466333333 C25.7916667,0.157666667 24.7763333,0.000666666667 23.771,0.000666666667 C18.377,0.000666666667 13.8433333,4.49966667 10.6873333,8.925 L6.00466667,7.363 C5.422,7.169 4.654,7.35066667 4.22,7.785 L0.505333333,11.4983333 C0.0946666667,11.9096667 -0.078,12.4153333 0.033,12.885 C0.144,13.3543333 0.524,13.7293333 1.07566667,13.913 L6.61333333,15.7593333 C6.036,16.8883333 5.84833333,17.349 5.83733333,17.3756667 C5.529,18.1443333 5.74533333,19.2043333 6.33033333,19.789 L10.21,23.6683333 C10.602,24.06 11.2303333,24.303 11.8503333,24.303 C12.1296667,24.303 12.3893333,24.256 12.623,24.1616667 C12.65,24.151 13.1086667,23.9643333 14.24,23.3853333 L16.086,28.9236667 C16.27,29.4756667 16.6446667,29.8556667 17.1143333,29.9666667 C17.2073333,29.9886667 17.302,29.9996667 17.3973333,29.9996667 C17.781,29.9996667 18.1706667,29.8236667 18.5003333,29.4936667 L22.2136667,25.78 C22.649,25.3453333 22.8303333,24.5776667 22.6353333,23.995 L21.0763333,19.3166667 C26.3846667,15.542 31.6046667,9.92633333 29.5366667,3.22133333 Z M1.41066667,12.9063333 C1.21866667,12.8423333 1.08933333,12.743 1.06533333,12.6406667 C1.041,12.5386667 1.11266667,12.392 1.25566667,12.2486667 L4.97033333,8.53466667 C5.121,8.384 5.46833333,8.30166667 5.66966667,8.36933333 L10.0576667,9.833 C9.13066667,11.2076667 8.34033333,12.544 7.70633333,13.7023333 C7.48266667,14.1106667 7.28666667,14.4746667 7.11033333,14.8066667 L1.41066667,12.9063333 Z M21.629,24.3306667 C21.6963333,24.5326667 21.6146667,24.879 21.4636667,25.0296667 L17.7493333,28.7433333 C17.606,28.8873333 17.459,28.9586667 17.3573333,28.9336667 C17.2553333,28.91 17.156,28.7803333 17.092,28.5883333 L15.192,22.888 C15.5193333,22.7143333 15.879,22.521 16.2813333,22.3003333 C17.4746667,21.6476667 18.8106667,20.858 20.1673333,19.9453333 L21.629,24.3306667 Z M15.772,21.3703333 C13.191,22.7826667 12.236,23.1736667 12.227,23.177 C12.1213333,23.22 11.991,23.242 11.8496667,23.242 C11.5113333,23.242 11.1533333,23.1113333 10.9596667,22.9173333 L7.08066667,19.0383333 C6.79433333,18.7523333 6.67066667,18.148 6.82166667,17.7723333 C6.82566667,17.763 7.21966667,16.8003333 8.63666667,14.2116667 C11.3256667,9.3 16.8673333,1.062 23.771,1.062 C24.6693333,1.062 25.5793333,1.20266667 26.4753333,1.48033333 C26.9963333,1.64166667 27.4323333,1.83566667 27.4363333,1.83733333 C27.6933333,1.95366667 28.046,2.30566667 28.1613333,2.56266667 C28.1636667,2.56733333 28.36,3.00733333 28.5226667,3.535 C31.017,11.62 21.6046667,18.1796667 15.772,21.3703333 Z" id="Shape"></path>
                <path d="M9.48633333,25.549 C8.302,26.1396667 4.96666667,27.414 3.77633333,26.223 C2.586,25.033 3.85933333,21.6973333 4.45033333,20.513 C4.58133333,20.2503333 4.47466667,19.932 4.21266667,19.8013333 C3.95033333,19.67 3.63233333,19.7763333 3.50133333,20.038 C3.24833333,20.5443333 1.08666667,25.035 3.02533333,26.9736667 C3.61533333,27.5633333 4.44133333,27.7736667 5.31966667,27.7736667 C7.32766667,27.7736667 9.60866667,26.6736667 9.96066667,26.498 C10.2223333,26.3666667 10.3286667,26.0483333 10.1976667,25.7866667 C10.0673333,25.525 9.749,25.4196667 9.48633333,25.549 Z" id="Shape"></path>
            </g>
        </g>
    </g>
</svg>